<?xml version="1.0" encoding="UTF-8"?>
<!DOCTYPE svg PUBLIC "-//W3C//DTD SVG 1.1//EN" "http://www.w3.org/Graphics/SVG/1.1/DTD/svg11.dtd">
<svg version="1.1" xmlns="http://www.w3.org/2000/svg" xmlns:xlink="http://www.w3.org/1999/xlink" x="0" y="0" width="562" height="321" viewBox="0, 0, 562, 321">
  <g id="Layer_1">
    <path d="M208.57,73.269 C208.57,73.269 182.326,86.853 165.114,148.017 C165.114,148.017 135.599,203.136 111.845,246.946 C111.845,246.946 91.361,292.962 22.445,273.403 C22.445,273.403 -31.643,286.987 88.873,310.388 C88.873,310.388 142.178,316.362 176.6,258.255 C176.6,258.255 195.484,229.521 212.695,218.995 C212.695,218.995 235.63,194.104 244.628,163.167 C244.628,163.167 297.115,93.68 272.508,73.269 C247.901,52.891 208.57,73.269 208.57,73.269" fill="#C3282B"/>
    <path d="M206.935,74.761 C206.935,74.761 220.057,54.421 252.025,55.167 C252.025,55.167 277.416,24.976 319.234,14.381 C361.054,3.819 321.724,24.194 321.724,24.194 C321.724,24.194 263.474,41.584 274.143,69.499 C274.143,69.499 285.665,83.865 279.087,98.943 C279.087,98.943 269.236,78.567 262.694,93.68 C262.694,93.68 257.75,68.005 247.901,86.853 C247.901,86.853 242.211,64.983 224.963,80.096 C207.75,95.175 230.689,64.235 206.935,74.761" fill="#378343"/>
    <path d="M153.38,213.165 C153.38,213.165 138.87,222.34 144.382,207.263 C149.895,192.254 171.018,170.136 171.018,170.136 C171.018,170.136 181.259,108.261 200,93.288 C200,93.288 215.967,69.499 215.54,92.399 C215.54,92.399 194.381,94.675 192.211,123.054 C192.211,123.054 180.299,139.554 176.636,168.856 L159.71,198.015 L153.38,213.165" fill="#FFFFFE"/>
    <path d="M421.009,73.269 C421.009,73.269 394.765,86.853 377.555,148.017 C377.555,148.017 348.04,203.136 324.249,246.946 C324.249,246.946 303.765,292.962 234.884,273.403 C234.884,273.403 180.762,286.987 301.313,310.388 C301.313,310.388 354.582,316.362 389.005,258.255 C389.005,258.255 407.887,229.521 425.098,218.995 C425.098,218.995 448.036,194.104 457.068,163.167 C457.068,163.167 509.556,93.68 484.947,73.269 C460.34,52.891 421.009,73.269 421.009,73.269" fill="#82B244"/>
    <path d="M419.373,74.761 C419.373,74.761 432.46,54.421 464.464,55.167 C464.464,55.167 489.855,24.976 531.674,14.381 C573.494,3.819 534.129,24.194 534.129,24.194 C534.129,24.194 475.916,41.584 486.583,69.499 C486.583,69.499 498.069,83.865 491.492,98.943 C491.492,98.943 481.676,78.567 475.133,93.68 C475.133,93.68 470.154,68.005 460.34,86.853 C460.34,86.853 454.615,64.983 437.369,80.096 C420.156,95.175 443.129,64.235 419.373,74.761" fill="#378343"/>
    <path d="M365.819,213.165 C365.819,213.165 351.31,222.34 356.786,207.263 C362.333,192.254 383.458,170.136 383.458,170.136 C383.458,170.136 393.699,108.261 412.404,93.288 C412.404,93.288 428.371,69.499 427.978,92.399 C427.978,92.399 406.786,94.675 404.651,123.054 C404.651,123.054 392.703,139.554 389.042,168.856 L372.148,198.015 L365.819,213.165" fill="#FFFFFE"/>
  </g>
</svg>
