<svg width="800" height="800" viewBox="0 0 800 800" fill="none" xmlns="http://www.w3.org/2000/svg">
<path d="M276.445 287.322C276.1 287.277 275.755 287.232 275.41 287.187C274.6 287.081 273.79 286.961 272.98 286.856C274.135 286.991 275.29 287.141 276.445 287.322ZM288.325 222.074C288.955 219.232 290.05 216.556 291.22 213.895C292.09 211.956 292.915 210.016 293.965 208.197C295.615 205.28 297.535 202.048 300.085 199.793C303.175 197.072 306.655 194.396 310.78 193.434C314.965 192.456 318.76 192.276 323.005 192.877C327.16 193.479 331.195 195.298 334.945 197.132C339.445 199.327 343.735 202.078 347.425 205.506C352.36 210.046 356.62 215.383 360.115 221.111C363.58 226.839 366.31 232.673 368.83 238.882C370.885 244.008 372.7 249.225 374.485 254.457C379.3 252.397 384.13 250.789 389.485 251.21C394.39 251.616 399.4 252.623 403.585 255.404C407.365 257.885 410.47 260.802 412.93 264.65C415.93 269.356 418.24 274.528 420.43 279.684C423.175 286.074 425.77 292.509 428.035 299.079C430.66 306.566 432.805 314.188 434.77 321.855C435.475 321.585 436.135 321.134 436.87 320.998C440.365 320.337 443.65 319.991 447.16 320.367C449.23 320.592 451.255 320.938 453.295 321.404C456.04 322.006 458.605 323.223 461.14 324.411C464.11 325.764 467.05 327.764 469.45 330.049C475.195 335.597 479.455 342.136 482.95 349.263C486.88 357.366 490.435 365.68 493.795 374.054C494.98 373.498 496.195 373.017 497.5 372.761C502.285 371.814 507.01 371.348 511.75 372.881C514.12 373.633 516.37 374.58 518.605 375.632C521.77 377.106 524.545 379.361 527.26 381.556C529.39 383.285 531.505 385.194 533.32 387.284C537.415 391.96 541.225 397.808 543.01 403.867C543.85 406.693 544.42 409.625 544.975 412.511C545.605 415.668 546.19 418.811 546.64 421.983C547.105 425.245 547.21 428.252 547.21 431.514C547.18 437.152 547.555 442.76 547.96 448.398C548.395 454.577 548.83 460.741 549.025 466.95C549.205 472.708 548.71 478.391 548.275 484.149C547.27 497.725 546.895 511.376 546.49 525.012C546.43 526.801 546.04 528.5 545.38 530.063C545.62 530.319 545.875 530.56 546.115 530.83C550.09 535.19 554.095 539.565 558.28 543.744C562.345 547.819 566.635 551.577 570.73 555.621C574.645 559.5 578.515 563.454 582.43 567.333C589 573.873 595.81 580.172 602.995 585.99C603.25 586.186 603.505 586.366 603.76 586.547C607.465 589.193 610 592.666 610 597.401C610 600.724 608.68 603.956 606.31 606.302C603.97 608.647 600.745 610 597.43 610C593.8 610 591.325 608.466 588.55 606.302C583.705 602.513 579.1 598.183 574.57 593.989C568.54 588.381 562.87 582.457 557.065 576.594C551.095 570.611 544.78 565.033 538.84 559.019C533.5 553.667 528.49 548.044 523.285 542.572C503.89 546.766 484.57 551.141 464.89 553.727C456.07 554.885 447.22 556.208 438.34 556.929C431.83 557.456 425.515 557.877 418.99 557.02C413.11 556.238 407.17 555.02 401.515 553.126C397.825 551.878 393.985 550.435 390.64 548.36C387.64 546.481 384.895 544.316 382.165 542.091C377.065 538.016 371.935 532.754 369.37 526.681C368.425 524.456 367.585 522.546 367.15 520.201C366.82 518.412 366.565 516.427 366.565 514.473C366.565 512.594 366.805 510.714 367.465 509.046C367.675 508.519 367.915 508.113 368.125 507.617C363.115 506.37 358.12 505.001 353.155 503.528C345.145 501.123 336.895 498.447 329.74 494.057C327.325 492.583 324.955 490.96 322.705 489.231C321.01 487.908 319.18 486.66 317.575 485.186C315.475 483.187 313.735 480.887 312.1 478.511C309.82 475.219 308.035 471.926 306.505 468.258C305.11 464.935 304 461.252 304 457.614C304 456.907 304.045 456.216 304.135 455.524C304.45 452.983 304.6 450.322 305.41 447.872C306.01 446.173 306.715 444.504 307.465 442.88C303.445 441.121 299.485 439.257 295.705 437.092C290.14 433.92 284.755 430.507 279.535 426.779C276.415 424.554 273.34 422.298 270.4 419.848C264.43 414.842 260.89 407.129 260.08 399.507C260.005 398.875 259.975 398.229 259.975 397.597C259.975 394.756 260.62 391.899 261.61 389.284C262.48 386.998 263.2 385.405 264.61 383.555C265.285 382.668 266.05 381.992 266.725 381.225C260.725 378.985 254.83 376.444 248.95 373.934C243.355 371.528 237.73 368.927 232.54 365.665C220.54 358.178 208.435 348.751 201.4 336.183C198.745 331.432 197.095 326.245 197.095 320.893C197.095 319.014 197.305 317.135 197.74 315.225C199.42 307.889 204.49 301.995 211.06 298.432C214.06 296.808 217.09 295.335 220.195 293.982C223.885 292.358 227.695 290.344 231.64 289.351C231.85 289.291 232.075 289.261 232.27 289.216C231.205 288.434 230.125 287.683 229.075 286.871C225.985 284.465 223.225 281.699 220.42 278.918C212.065 270.559 205.345 260.561 199.255 250.488C197.695 247.887 196.09 245.286 194.875 242.505C193.63 239.709 192.13 236.732 191.47 233.695C190.645 230.087 190 226.373 190 222.69C190 221.773 190.045 220.871 190.12 219.954C190.87 212.271 193.03 204.574 199.12 199.402C209.875 190.186 225.22 188.773 238.675 190.818C242.71 191.419 246.655 192.171 250.465 193.704C253.9 195.087 257.35 196.485 260.665 198.124C271.69 203.582 280.375 212.782 288.325 222.074ZM299.05 366.146C307.66 364.477 316.465 363.515 325.135 362.853C331.36 362.387 337.615 361.846 343.84 361.606C344.485 361.576 345.115 361.561 345.76 361.545C341.785 357.216 337.87 352.781 333.7 348.631C324.475 339.43 314.935 330.59 305.35 321.765C303.295 321.645 301.27 321.149 299.47 319.961C298.45 319.269 297.43 318.638 296.365 318.082C292.405 316.729 288.235 315.932 284.155 315.045C279.88 314.113 275.56 313.346 271.21 312.684C263.365 311.812 255.64 311.422 247.765 312.083C243.46 312.76 239.155 313.602 235.075 315.18C230.95 316.984 226.825 318.879 223.045 321.299C223.045 321.314 223.045 321.329 223.045 321.359C223.135 321.69 223.24 322.021 223.345 322.351C224.62 324.877 226.135 327.222 227.8 329.523C231.475 333.807 235.525 337.641 239.905 341.204C247.54 346.707 255.685 350.901 264.235 354.78C268.945 356.75 273.67 358.659 278.53 360.222C284.29 362.102 290.32 363.289 296.2 364.733C297.28 365.003 298.15 365.62 299.05 366.146ZM285.265 397.222C285.295 397.191 285.325 397.176 285.355 397.146C285.61 396.816 285.88 396.47 286.135 396.124C285.82 396.47 285.535 396.846 285.265 397.222ZM285.1 397.507C285.16 397.417 285.235 397.342 285.295 397.252C285.28 397.267 285.25 397.282 285.235 397.297C285.175 397.357 285.145 397.432 285.1 397.507C285.1 397.492 285.1 397.492 285.1 397.507ZM325 423.757C325.96 424.148 326.755 424.644 327.58 425.095C327.685 425.05 327.79 425.005 327.895 424.96C330.745 423.862 333.61 422.704 336.55 421.863C348.895 418.345 361.63 416.811 374.41 415.714C380.545 415.172 386.755 414.872 392.92 414.436C394.135 414.345 395.335 414.406 396.535 414.36C392.92 410.722 389.29 407.114 385.66 403.506C380.455 398.289 375.415 392.907 370.315 387.585C367.015 389.659 362.95 390.486 358.915 389.464C357.445 389.103 355.975 388.772 354.475 388.502C347.38 387.795 340.285 387.885 333.145 388.201C325.675 388.517 318.205 388.968 310.765 389.825C303.85 390.877 296.92 391.945 290.29 394.26C288.895 394.996 287.545 395.763 286.24 396.635C285.835 397.026 285.415 397.417 285.025 397.823C284.98 397.958 284.95 398.109 284.905 398.244C285.04 398.77 285.19 399.296 285.37 399.807C285.76 400.544 286.18 401.266 286.63 401.957C287.71 403.025 288.835 404.017 290.005 404.979C293.98 407.866 298.06 410.557 302.275 413.083C306.43 415.593 310.84 417.593 315.22 419.653C318.46 421.036 321.715 422.419 325 423.757ZM388.405 487.006C399.985 479.939 413.005 476.241 426.22 473.565C432.595 472.272 438.97 470.994 445.33 469.716C447.31 469.325 449.32 468.919 451.315 468.544C440.845 458.185 430.36 447.827 419.815 437.528C418.855 438.656 417.79 439.708 416.5 440.475C413.095 442.474 409.81 442.444 406.06 441.828C405.76 441.783 405.46 441.738 405.16 441.693C390.175 439.919 374.8 440.52 359.845 442.399C355.78 443.016 351.745 443.662 347.77 444.639C343.615 445.647 339.595 447.015 335.62 448.548C334.6 449.044 333.595 449.57 332.635 450.172C331.885 450.833 331.18 451.525 330.49 452.247C330.07 452.908 329.68 453.585 329.32 454.291C329.065 455.118 328.855 455.945 328.675 456.802C328.675 456.982 328.66 457.163 328.66 457.328C328.885 458.26 329.14 459.162 329.44 460.064C330.595 462.304 331.93 464.439 333.37 466.514C334.57 467.852 335.89 469.04 337.255 470.167C340.42 472.513 343.705 474.693 347.275 476.391C353.38 478.722 359.695 480.421 366.025 482.165C373.39 484.194 380.92 485.698 388.405 487.006ZM393.55 515.585C393.55 515.57 393.55 515.54 393.55 515.525C393.55 515.555 393.55 515.57 393.55 515.585ZM447.505 528.846C453.97 528.259 460.435 527.643 466.855 526.876C478.345 525.102 489.67 522.441 500.995 519.75C498.82 517.525 496.6 515.33 494.455 513.075C486.7 505.001 479.305 496.612 471.505 488.614C469.105 491.486 465.64 493.425 461.68 493.485C459.475 493.53 457.285 493.606 455.08 493.816C447.685 495.004 440.32 496.582 433 498.116C425.215 499.724 417.67 501.679 410.26 504.46C405.34 506.745 400.855 509.512 396.46 512.669C395.62 513.391 394.81 514.127 394.06 514.924C394.285 515.3 394.525 515.676 394.765 516.036C396.7 518.262 398.845 520.276 401.14 522.185C403.24 523.689 405.415 525.057 407.71 526.2C412.15 527.808 416.77 528.966 421.39 529.823C430.075 530.635 438.85 529.612 447.505 528.846ZM504.085 397.222C503.89 397.432 503.71 397.627 503.53 397.838C502.255 399.853 501.175 401.972 500.2 404.167C498.415 408.978 497.305 413.804 496.405 418.871C494.125 437.393 492.7 456.411 494.605 475.023C494.74 475.805 494.89 476.587 495.07 477.369C495.13 477.639 495.115 477.895 495.16 478.165C498.76 482.059 502.33 485.998 505.915 489.907C510.865 495.274 516.13 500.341 521.305 505.483C521.5 502.235 521.62 498.988 521.86 495.74C522.49 487.366 523.54 478.827 523.3 470.423C523.075 461.778 522.235 453.194 521.65 444.579C521.2 437.964 521.215 431.244 520.525 424.659C519.82 420.194 519.07 415.699 517.72 411.354C516.805 409.339 515.785 407.37 514.555 405.52C512.695 403.355 510.7 401.311 508.555 399.447C507.58 398.785 506.56 398.199 505.495 397.658C505.015 397.507 504.55 397.357 504.085 397.222ZM503.635 397.282C503.23 397.567 502.84 397.898 502.48 398.259C502.915 397.913 503.35 397.582 503.77 397.237C503.725 397.252 503.68 397.267 503.635 397.282ZM444.685 343.414C444.025 343.399 443.365 343.399 442.705 343.429C442.36 343.625 442 343.82 441.67 344.031C441.25 344.422 440.83 344.812 440.425 345.218C440.155 345.684 439.9 346.166 439.645 346.647C438.685 349.308 438.04 351.969 437.545 354.765C436.525 364.537 436.3 374.279 436.375 384.097C436.435 393.673 436.84 403.16 437.89 412.647C438.415 415.774 439.165 418.796 439.885 421.893C439.99 422.344 439.9 422.78 439.945 423.216C444.145 427.2 448.36 431.169 452.515 435.243C458.515 441.166 464.5 447.105 470.5 453.058C470.515 445.451 470.815 437.874 471.31 430.267C471.595 425.907 472.03 421.532 472.495 417.202C473.185 410.557 474.28 403.731 476.62 397.462C476.665 397.342 476.725 397.222 476.77 397.101C476.05 396.049 475.36 394.981 474.925 393.719C471.7 384.277 468.19 374.941 464.515 365.65C462.31 360.553 459.94 355.547 456.85 350.901C455.5 349.338 454.045 347.894 452.5 346.526C451.255 345.745 449.98 345.038 448.66 344.407C447.355 344.016 446.035 343.685 444.685 343.414ZM387.82 275.655C387.115 275.851 386.425 276.076 385.735 276.317C385.015 276.978 384.325 277.67 383.665 278.392C381.91 281.068 380.56 283.909 379.3 286.841C378.19 289.622 377.08 292.463 376.375 295.38C375.685 298.282 375.145 301.168 374.68 304.115C374.365 307.648 374.02 311.271 374.245 314.834C374.425 318.563 374.755 322.216 375.175 325.915C377.26 339.355 379.36 352.796 382.06 366.161C382.075 366.206 382.06 366.251 382.075 366.296C387.055 371.438 392.05 376.55 397.165 381.541C402.94 387.209 408.715 392.877 414.475 398.56C414.1 389.464 413.935 380.353 413.905 371.242C413.905 365.139 414.37 359.08 414.97 353.006C415.21 350.691 415.555 348.421 416.035 346.181C413.875 336.619 412.03 326.922 409.495 317.435C407.17 308.791 404.275 300.462 400.81 292.223C398.68 287.367 396.295 282.496 393.355 278.106C392.965 277.67 392.56 277.249 392.14 276.858C391.57 276.512 390.985 276.182 390.4 275.866C390.205 275.806 389.995 275.73 389.785 275.685C389.125 275.64 388.465 275.64 387.82 275.655ZM386.755 275.776C386.815 275.746 386.875 275.731 386.935 275.7C386.89 275.731 386.815 275.746 386.755 275.776ZM387.325 275.52C387.265 275.535 387.22 275.565 387.16 275.595H387.175C387.22 275.565 387.28 275.55 387.325 275.52ZM317.5 218.676C315.985 220.946 314.725 223.351 313.525 225.787C312.79 227.922 312.325 230.087 311.89 232.327C311.545 235.153 311.2 238.01 311.23 240.821C311.26 244.655 311.425 248.428 311.695 252.217C312.145 252.969 312.685 253.675 313.09 254.442C314.815 257.735 315.1 261.433 314.14 264.771C314.92 268.725 315.535 272.694 316.45 276.617C318.25 284.24 320.245 291.772 323.065 299.094C324.22 301.108 324.79 303.303 324.82 305.603C324.82 305.754 324.775 305.889 324.76 306.039C330.94 311.933 337.09 317.841 343.09 323.885C345.76 326.606 348.22 329.523 350.77 332.349C350.14 328.455 349.555 324.546 349.315 320.653C349.18 318.217 349.105 315.812 349.105 313.421C349.105 310.219 349.24 307.017 349.51 303.784C350.11 296.823 351.535 289.878 353.95 283.353C354.865 280.857 355.855 278.301 356.905 275.761C355.825 272.077 354.76 268.394 353.65 264.71C352.255 260.125 350.5 255.645 348.745 251.165C348.595 250.789 348.43 250.413 348.28 250.037C346.615 246.233 344.875 242.505 342.805 238.897C341.215 236.055 339.325 233.364 337.42 230.718C334.855 227.636 332.155 224.825 329.08 222.254C327.265 221.066 325.42 220.059 323.485 219.142C322 218.601 320.515 218.12 319 217.729C318.835 217.729 318.655 217.729 318.49 217.729C318.43 217.744 318.385 217.759 318.325 217.774C318.055 218.09 317.77 218.375 317.5 218.676ZM222.985 214.782C221.08 215.143 219.25 215.609 217.405 216.24C216.595 216.646 215.8 217.082 215.035 217.578C215.005 217.608 214.975 217.638 214.945 217.669C214.57 218.901 214.255 220.149 214 221.412C213.91 222.9 213.94 224.389 214.06 225.877C214.435 227.967 214.975 229.951 215.695 231.921C219.265 239.528 223.915 246.73 228.85 253.51C233.035 258.727 237.43 263.643 242.485 268.048C246.175 270.739 250.075 273.145 253.87 275.685C258.19 278.542 262.525 281.353 266.905 284.09C267.97 284.766 268.81 285.683 269.605 286.6C271.54 286.796 273.475 286.931 275.425 287.187C281.725 288.059 287.98 289.081 294.25 290.208C293.95 288.946 293.65 287.668 293.35 286.405C291.505 278.572 289.51 270.709 288.25 262.801C288.235 262.711 288.22 262.621 288.205 262.531C286.96 260.08 285.64 257.674 284.05 255.389C279.67 249.872 275.08 244.49 270.385 239.213C265.585 233.815 260.65 228.659 255.16 223.998C251.8 221.713 248.29 219.818 244.615 218.074C243.31 217.563 241.99 217.067 240.655 216.586C238.225 215.744 235.66 215.293 233.125 214.872C229.735 214.526 226.36 214.511 222.985 214.782Z" fill="black"/>
<path fill-rule="evenodd" clip-rule="evenodd" d="M711.112 44.4446H577.779V0H711.112C760.204 0 800 39.7971 800 88.8887V222.222H755.554V88.8887C755.554 64.3429 735.658 44.4446 711.112 44.4446ZM222.222 0V44.4446H88.8887C64.3429 44.4446 44.4446 64.3429 44.4446 88.8887V222.222H0V88.8887C0 39.7971 39.7971 0 88.8887 0H222.222ZM0 577.779H44.4446V711.112C44.4446 735.658 64.3429 755.554 88.8887 755.554H222.222V800H88.8887C39.7971 800 0 760.204 0 711.112V577.779ZM577.779 800V755.554H711.112C735.658 755.554 755.554 735.658 755.554 711.112V577.779H800V711.112C800 760.204 760.204 800 711.112 800H577.779Z" fill="black"/>
</svg>
