<svg width="1783" height="3453" viewBox="0 0 1783 3453" fill="none" xmlns="http://www.w3.org/2000/svg">
<path d="M1783 294.563V3158.18C1783 3320.6 1650.81 3452.74 1488.32 3452.74H294.679C132.195 3452.74 0 3320.6 0 3158.18V294.563C0 132.143 132.195 0 294.679 0H1488.32C1650.81 0 1783 132.143 1783 294.563ZM1671.1 3158.18V2975.47H111.9V3158.18C111.9 3258.93 193.889 3340.88 294.679 3340.88H1488.32C1589.11 3340.88 1671.1 3258.93 1671.1 3158.18ZM1671.1 2863.61V589.126H111.9V2863.61H1671.1ZM1671.1 477.27V294.563C1671.1 193.812 1589.11 111.856 1488.32 111.856H294.679C193.889 111.856 111.9 193.812 111.9 294.563V477.27H1671.1Z" fill="black"/>
<path d="M1515.12 794.839C1547.39 794.839 1573.59 821.034 1573.59 853.305C1573.59 885.576 1547.39 911.771 1515.12 911.771H1016.22C983.952 911.771 957.757 885.576 957.757 853.305C957.757 821.034 983.952 794.839 1016.22 794.839H1515.12Z" fill="black"/>
<path d="M1515.12 1418.46C1547.39 1418.46 1573.59 1444.65 1573.59 1476.92C1573.59 1509.2 1547.39 1535.39 1515.12 1535.39H1016.22C983.952 1535.39 957.757 1509.2 957.757 1476.92C957.757 1444.65 983.952 1418.46 1016.22 1418.46H1515.12Z" fill="black"/>
<path d="M1515.12 2042.08C1547.39 2042.08 1573.59 2068.27 1573.59 2100.54C1573.59 2132.81 1547.39 2159.01 1515.12 2159.01H1016.22C983.952 2159.01 957.757 2132.81 957.757 2100.54C957.757 2068.27 983.952 2042.08 1016.22 2042.08H1515.12Z" fill="black"/>
<path d="M1515.12 2665.7C1547.39 2665.7 1573.59 2691.89 1573.59 2724.16C1573.59 2756.43 1547.39 2782.63 1515.12 2782.63H1390.4C1358.13 2782.63 1331.93 2756.43 1331.93 2724.16C1331.93 2691.89 1358.13 2665.7 1390.4 2665.7H1515.12Z" fill="black"/>
<path d="M1265.67 1044.28C1297.94 1044.28 1324.13 1070.48 1324.13 1102.75C1324.13 1135.02 1297.94 1161.22 1265.67 1161.22H1016.22C983.952 1161.22 957.757 1135.02 957.757 1102.75C957.757 1070.48 983.952 1044.28 1016.22 1044.28H1265.67Z" fill="black"/>
<path d="M1265.67 1667.9C1297.94 1667.9 1324.13 1694.1 1324.13 1726.37C1324.13 1758.64 1297.94 1784.83 1265.67 1784.83H1016.22C983.952 1784.83 957.757 1758.64 957.757 1726.37C957.757 1694.1 983.952 1667.9 1016.22 1667.9H1265.67Z" fill="black"/>
<path d="M1265.67 2291.52C1297.94 2291.52 1324.13 2317.72 1324.13 2349.99C1324.13 2382.26 1297.94 2408.45 1265.67 2408.45H1016.22C983.952 2408.45 957.757 2382.26 957.757 2349.99C957.757 2317.72 983.952 2291.52 1016.22 2291.52H1265.67Z" fill="black"/>
<path d="M1140.94 2665.7C1173.22 2665.7 1199.41 2691.89 1199.41 2724.16C1199.41 2756.43 1173.22 2782.63 1140.94 2782.63H1016.22C983.952 2782.63 957.757 2756.43 957.757 2724.16C957.757 2691.89 983.952 2665.7 1016.22 2665.7H1140.94Z" fill="black"/>
<path d="M1078.58 171.213C1110.85 171.213 1137.05 197.407 1137.05 229.678C1137.05 261.949 1110.85 288.144 1078.58 288.144H704.409C672.138 288.144 645.943 261.949 645.943 229.678C645.943 197.407 672.138 171.213 704.409 171.213H1078.58Z" fill="black"/>
<path d="M891.5 3110.02C953.861 3110.02 1004.53 3160.69 1004.53 3223.05C1004.53 3285.41 953.861 3336.08 891.5 3336.08C829.139 3336.08 778.471 3285.41 778.471 3223.05C778.471 3160.69 829.139 3110.02 891.5 3110.02ZM895.395 3223.05C895.395 3220.87 893.681 3219.16 891.5 3219.16C889.319 3219.16 887.605 3220.87 887.605 3223.05C887.605 3225.23 889.319 3226.95 891.5 3226.95C893.681 3226.96 895.395 3225.24 895.395 3223.05Z" fill="black"/>
<path d="M766.778 2665.7C799.048 2665.7 825.244 2691.89 825.244 2724.16C825.244 2756.43 799.048 2782.63 766.778 2782.63H642.055C609.784 2782.63 583.589 2756.43 583.589 2724.16C583.589 2691.89 609.784 2665.7 642.055 2665.7H766.778Z" fill="black"/>
<path d="M392.603 2665.7C424.874 2665.7 451.069 2691.89 451.069 2724.16C451.069 2756.43 424.874 2782.63 392.603 2782.63H267.881C235.61 2782.63 209.415 2756.43 209.415 2724.16C209.415 2691.89 235.61 2665.7 267.881 2665.7H392.603Z" fill="black"/>
<path d="M434.443 971.2C434.07 971.152 433.697 971.103 433.324 971.054C432.449 970.94 431.573 970.81 430.697 970.696C431.946 970.843 433.194 971.005 434.443 971.2ZM447.285 900.67C447.966 897.599 449.149 894.706 450.414 891.829C451.354 889.733 452.246 887.637 453.381 885.67C455.165 882.517 457.24 879.023 459.997 876.586C463.337 873.644 467.099 870.752 471.557 869.711C476.081 868.655 480.183 868.46 484.772 869.11C489.263 869.76 493.625 871.727 497.679 873.709C502.543 876.082 507.18 879.056 511.169 882.761C516.503 887.669 521.108 893.438 524.886 899.63C528.632 905.822 531.583 912.127 534.307 918.839C536.528 924.381 538.49 930.02 540.419 935.675C545.624 933.449 550.845 931.71 556.634 932.165C561.936 932.604 567.351 933.692 571.875 936.699C575.961 939.38 579.318 942.533 581.977 946.693C585.22 951.78 587.717 957.37 590.084 962.945C593.051 969.851 595.856 976.807 598.305 983.909C601.142 992.002 603.461 1000.24 605.585 1008.53C606.347 1008.24 607.06 1007.75 607.855 1007.6C611.633 1006.89 615.184 1006.51 618.978 1006.92C621.215 1007.16 623.404 1007.54 625.609 1008.04C628.577 1008.69 631.349 1010.01 634.089 1011.29C637.3 1012.75 640.478 1014.92 643.072 1017.39C649.282 1023.38 653.887 1030.45 657.665 1038.16C661.913 1046.91 665.756 1055.9 669.388 1064.95C670.669 1064.35 671.982 1063.83 673.393 1063.56C678.565 1062.53 683.673 1062.03 688.796 1063.69C691.358 1064.5 693.79 1065.52 696.206 1066.66C699.628 1068.25 702.627 1070.69 705.562 1073.06C707.864 1074.93 710.151 1077 712.113 1079.25C716.539 1084.31 720.658 1090.63 722.587 1097.18C723.495 1100.23 724.111 1103.4 724.711 1106.52C725.392 1109.94 726.024 1113.33 726.511 1116.76C727.014 1120.29 727.127 1123.54 727.127 1127.07C727.095 1133.16 727.5 1139.22 727.938 1145.32C728.408 1152 728.878 1158.66 729.089 1165.37C729.284 1171.59 728.748 1177.74 728.278 1183.96C727.192 1198.64 726.786 1213.39 726.349 1228.13C726.284 1230.07 725.862 1231.9 725.149 1233.59C725.408 1233.87 725.684 1234.13 725.943 1234.42C730.24 1239.13 734.569 1243.86 739.093 1248.38C743.487 1252.78 748.124 1256.85 752.551 1261.22C756.783 1265.41 760.966 1269.69 765.198 1273.88C772.3 1280.95 779.661 1287.76 787.428 1294.05C787.704 1294.26 787.979 1294.45 788.255 1294.65C792.26 1297.51 795 1301.26 795 1306.38C795 1309.97 793.573 1313.47 791.011 1316C788.482 1318.54 784.996 1320 781.412 1320C777.489 1320 774.813 1318.34 771.814 1316C766.576 1311.91 761.599 1307.23 756.702 1302.69C750.184 1296.63 744.055 1290.23 737.78 1283.89C731.326 1277.42 724.5 1271.39 718.079 1264.89C712.307 1259.11 706.892 1253.03 701.265 1247.11C680.3 1251.65 659.416 1256.38 638.143 1259.17C628.609 1260.42 619.043 1261.85 609.444 1262.63C602.407 1263.2 595.58 1263.66 588.527 1262.73C582.171 1261.89 575.75 1260.57 569.638 1258.52C565.649 1257.17 561.498 1255.61 557.882 1253.37C554.639 1251.34 551.672 1249 548.721 1246.59C543.208 1242.19 537.663 1236.5 534.89 1229.94C533.869 1227.53 532.961 1225.47 532.491 1222.93C532.134 1221 531.858 1218.85 531.858 1216.74C531.858 1214.71 532.118 1212.68 532.831 1210.87C533.058 1210.3 533.318 1209.87 533.545 1209.33C528.129 1207.98 522.73 1206.5 517.363 1204.91C508.704 1202.31 499.786 1199.42 492.052 1194.67C489.442 1193.08 486.88 1191.32 484.448 1189.45C482.616 1188.02 480.637 1186.68 478.903 1185.08C476.633 1182.92 474.752 1180.43 472.984 1177.87C470.52 1174.31 468.59 1170.75 466.936 1166.78C465.428 1163.19 464.229 1159.21 464.229 1155.28C464.229 1154.51 464.277 1153.77 464.375 1153.02C464.715 1150.27 464.877 1147.4 465.753 1144.75C466.401 1142.91 467.163 1141.11 467.974 1139.35C463.629 1137.45 459.348 1135.44 455.262 1133.09C449.247 1129.67 443.426 1125.98 437.783 1121.95C434.411 1119.54 431.087 1117.1 427.909 1114.45C421.455 1109.04 417.629 1100.71 416.753 1092.47C416.672 1091.78 416.64 1091.09 416.64 1090.4C416.64 1087.33 417.337 1084.24 418.407 1081.42C419.347 1078.95 420.126 1077.22 421.65 1075.22C422.379 1074.27 423.206 1073.53 423.936 1072.71C417.45 1070.28 411.078 1067.54 404.722 1064.82C398.674 1062.22 392.594 1059.41 386.984 1055.89C374.012 1047.79 360.927 1037.6 353.323 1024.02C350.453 1018.88 348.669 1013.27 348.669 1007.49C348.669 1005.46 348.896 1003.43 349.367 1001.36C351.183 993.432 356.663 987.061 363.765 983.21C367.008 981.455 370.283 979.862 373.639 978.4C377.628 976.644 381.747 974.467 386.011 973.394C386.238 973.329 386.481 973.297 386.692 973.248C385.541 972.403 384.373 971.59 383.238 970.713C379.898 968.113 376.915 965.122 373.883 962.116C364.851 953.08 357.587 942.273 351.004 931.385C349.318 928.573 347.583 925.762 346.27 922.755C344.924 919.733 343.302 916.515 342.589 913.232C341.697 909.332 341 905.318 341 901.336C341 900.345 341.049 899.37 341.13 898.379C341.94 890.074 344.275 881.754 350.858 876.163C362.484 866.201 379.071 864.674 393.615 866.884C397.977 867.534 402.241 868.346 406.36 870.004C410.073 871.499 413.802 873.01 417.385 874.782C429.303 880.681 438.691 890.627 447.285 900.67ZM458.878 1056.41C468.185 1054.6 477.703 1053.56 487.075 1052.85C493.803 1052.34 500.565 1051.76 507.294 1051.5C507.991 1051.46 508.672 1051.45 509.369 1051.43C505.072 1046.75 500.84 1041.96 496.333 1037.47C486.361 1027.53 476.049 1017.97 465.688 1008.43C463.466 1008.3 461.278 1007.77 459.332 1006.48C458.229 1005.73 457.127 1005.05 455.975 1004.45C451.695 1002.99 447.187 1002.13 442.777 1001.17C438.156 1000.16 433.486 999.331 428.784 998.616C420.304 997.673 411.954 997.251 403.441 997.966C398.788 998.697 394.134 999.607 389.724 1001.31C385.265 1003.26 380.806 1005.31 376.72 1007.93C376.72 1007.94 376.72 1007.96 376.72 1007.99C376.817 1008.35 376.931 1008.71 377.044 1009.07C378.423 1011.8 380.06 1014.33 381.86 1016.82C385.833 1021.45 390.21 1025.59 394.945 1029.44C403.198 1035.39 412.002 1039.93 421.244 1044.12C426.336 1046.25 431.443 1048.31 436.697 1050C442.923 1052.03 449.441 1053.32 455.797 1054.88C456.965 1055.17 457.905 1055.84 458.878 1056.41ZM443.977 1090C444.009 1089.96 444.042 1089.95 444.074 1089.92C444.35 1089.56 444.642 1089.18 444.917 1088.81C444.577 1089.18 444.269 1089.59 443.977 1090ZM443.799 1090.31C443.863 1090.21 443.944 1090.13 444.009 1090.03C443.993 1090.05 443.961 1090.06 443.944 1090.08C443.88 1090.14 443.847 1090.22 443.799 1090.31C443.799 1090.29 443.799 1090.29 443.799 1090.31ZM486.929 1118.68C487.966 1119.1 488.826 1119.64 489.717 1120.13C489.831 1120.08 489.944 1120.03 490.058 1119.98C493.139 1118.79 496.236 1117.54 499.414 1116.63C512.758 1112.83 526.524 1111.17 540.338 1109.99C546.97 1109.4 553.683 1109.08 560.347 1108.6C561.66 1108.51 562.957 1108.57 564.255 1108.52C560.347 1104.59 556.423 1100.69 552.499 1096.79C546.873 1091.15 541.425 1085.33 535.912 1079.58C532.345 1081.82 527.951 1082.72 523.589 1081.61C522 1081.22 520.411 1080.86 518.79 1080.57C511.12 1079.81 503.451 1079.9 495.733 1080.25C487.658 1080.59 479.583 1081.07 471.541 1082C464.066 1083.14 456.575 1084.29 449.409 1086.8C447.901 1087.59 446.441 1088.42 445.031 1089.36C444.593 1089.79 444.139 1090.21 443.717 1090.65C443.669 1090.79 443.636 1090.96 443.588 1091.1C443.734 1091.67 443.896 1092.24 444.09 1092.79C444.512 1093.59 444.966 1094.37 445.452 1095.12C446.62 1096.27 447.836 1097.34 449.101 1098.38C453.397 1101.5 457.808 1104.41 462.364 1107.14C466.855 1109.86 471.622 1112.02 476.357 1114.24C479.859 1115.74 483.378 1117.23 486.929 1118.68ZM555.466 1187.05C567.984 1179.41 582.058 1175.41 596.343 1172.52C603.234 1171.12 610.125 1169.74 617 1168.36C619.14 1167.94 621.313 1167.5 623.469 1167.09C612.151 1155.9 600.818 1144.7 589.419 1133.57C588.381 1134.79 587.23 1135.92 585.836 1136.75C582.155 1138.91 578.604 1138.88 574.551 1138.21C574.226 1138.17 573.902 1138.12 573.578 1138.07C557.38 1136.15 540.76 1136.8 524.594 1138.83C520.2 1139.5 515.839 1140.2 511.542 1141.25C507.05 1142.34 502.705 1143.82 498.408 1145.48C497.306 1146.01 496.219 1146.58 495.182 1147.23C494.371 1147.95 493.609 1148.7 492.863 1149.48C492.409 1150.19 491.987 1150.92 491.598 1151.69C491.323 1152.58 491.096 1153.47 490.901 1154.4C490.901 1154.6 490.885 1154.79 490.885 1154.97C491.128 1155.98 491.404 1156.95 491.728 1157.93C492.976 1160.35 494.42 1162.66 495.976 1164.9C497.273 1166.34 498.7 1167.63 500.176 1168.85C503.597 1171.38 507.148 1173.74 511.007 1175.58C517.606 1178.09 524.432 1179.93 531.275 1181.82C539.236 1184.01 547.375 1185.63 555.466 1187.05ZM561.028 1217.94C561.028 1217.93 561.028 1217.89 561.028 1217.88C561.028 1217.91 561.028 1217.93 561.028 1217.94ZM619.351 1232.28C626.339 1231.64 633.327 1230.98 640.267 1230.15C652.687 1228.23 664.929 1225.35 677.171 1222.44C674.82 1220.04 672.42 1217.67 670.101 1215.23C661.719 1206.5 653.725 1197.43 645.294 1188.79C642.699 1191.89 638.954 1193.99 634.673 1194.05C632.29 1194.1 629.922 1194.18 627.539 1194.41C619.545 1195.69 611.584 1197.4 603.671 1199.06C595.256 1200.8 587.1 1202.91 579.091 1205.92C573.772 1208.39 568.924 1211.38 564.173 1214.79C563.265 1215.57 562.39 1216.37 561.579 1217.23C561.822 1217.63 562.082 1218.04 562.341 1218.43C564.433 1220.84 566.752 1223.01 569.232 1225.08C571.502 1226.7 573.853 1228.18 576.334 1229.42C581.134 1231.15 586.128 1232.41 591.122 1233.33C600.51 1234.21 609.995 1233.1 619.351 1232.28ZM680.511 1090C680.3 1090.22 680.106 1090.44 679.911 1090.66C678.533 1092.84 677.365 1095.13 676.311 1097.5C674.382 1102.71 673.182 1107.92 672.209 1113.4C669.745 1133.42 668.204 1153.98 670.263 1174.1C670.409 1174.94 670.572 1175.79 670.766 1176.63C670.831 1176.92 670.815 1177.2 670.863 1177.49C674.755 1181.7 678.614 1185.96 682.489 1190.19C687.84 1195.99 693.531 1201.46 699.125 1207.02C699.336 1203.51 699.465 1200 699.725 1196.49C700.406 1187.44 701.541 1178.21 701.281 1169.12C701.038 1159.78 700.13 1150.5 699.498 1141.19C699.011 1134.04 699.028 1126.77 698.282 1119.66C697.52 1114.83 696.709 1109.97 695.25 1105.27C694.261 1103.1 693.158 1100.97 691.828 1098.97C689.818 1096.63 687.661 1094.42 685.343 1092.4C684.289 1091.69 683.186 1091.05 682.035 1090.47C681.516 1090.31 681.014 1090.14 680.511 1090ZM680.025 1090.06C679.587 1090.37 679.165 1090.73 678.776 1091.12C679.246 1090.74 679.716 1090.39 680.17 1090.01C680.122 1090.03 680.073 1090.05 680.025 1090.06ZM616.302 1031.83C615.589 1031.82 614.876 1031.82 614.162 1031.85C613.789 1032.06 613.4 1032.27 613.043 1032.5C612.589 1032.92 612.135 1033.34 611.698 1033.78C611.406 1034.29 611.13 1034.81 610.854 1035.33C609.817 1038.2 609.119 1041.08 608.584 1044.1C607.482 1054.67 607.239 1065.2 607.32 1075.81C607.384 1086.16 607.822 1096.42 608.957 1106.67C609.525 1110.05 610.336 1113.32 611.114 1116.66C611.227 1117.15 611.13 1117.62 611.179 1118.09C615.719 1122.4 620.275 1126.69 624.766 1131.1C631.252 1137.5 637.721 1143.92 644.207 1150.35C644.223 1142.13 644.548 1133.94 645.083 1125.72C645.391 1121 645.861 1116.27 646.364 1111.59C647.11 1104.41 648.293 1097.03 650.823 1090.26C650.871 1090.13 650.936 1090 650.985 1089.87C650.206 1088.73 649.461 1087.58 648.99 1086.21C645.504 1076 641.71 1065.91 637.738 1055.87C635.354 1050.36 632.792 1044.95 629.452 1039.93C627.993 1038.24 626.42 1036.68 624.75 1035.2C623.404 1034.35 622.026 1033.59 620.599 1032.91C619.189 1032.48 617.762 1032.13 616.302 1031.83ZM554.834 958.589C554.072 958.801 553.326 959.044 552.58 959.304C551.802 960.019 551.056 960.767 550.343 961.547C548.446 964.44 546.986 967.511 545.624 970.68C544.424 973.687 543.225 976.758 542.463 979.911C541.717 983.047 541.133 986.168 540.63 989.353C540.29 993.172 539.917 997.088 540.16 1000.94C540.355 1004.97 540.711 1008.92 541.165 1012.92C543.419 1027.45 545.689 1041.97 548.608 1056.42C548.624 1056.47 548.608 1056.52 548.624 1056.57C554.007 1062.13 559.406 1067.65 564.935 1073.05C571.178 1079.17 577.421 1085.3 583.647 1091.44C583.241 1081.61 583.063 1071.76 583.031 1061.91C583.031 1055.32 583.533 1048.77 584.182 1042.2C584.441 1039.7 584.814 1037.25 585.333 1034.82C582.998 1024.49 581.004 1014.01 578.264 1003.75C575.75 994.407 572.621 985.404 568.876 976.498C566.573 971.249 563.995 965.984 560.817 961.238C560.396 960.767 559.958 960.312 559.504 959.889C558.888 959.516 558.255 959.158 557.623 958.817C557.412 958.752 557.185 958.671 556.958 958.622C556.245 958.573 555.531 958.573 554.834 958.589ZM553.683 958.719C553.748 958.687 553.813 958.671 553.877 958.638C553.829 958.671 553.748 958.687 553.683 958.719ZM554.299 958.443C554.234 958.459 554.185 958.492 554.121 958.524H554.137C554.185 958.492 554.25 958.476 554.299 958.443ZM478.821 896.997C477.184 899.451 475.822 902.051 474.525 904.684C473.73 906.992 473.228 909.332 472.757 911.753C472.384 914.809 472.011 917.896 472.044 920.935C472.076 925.079 472.255 929.158 472.547 933.254C473.033 934.066 473.617 934.83 474.054 935.659C475.919 939.218 476.227 943.216 475.189 946.823C476.033 951.097 476.697 955.388 477.686 959.629C479.632 967.869 481.789 976.011 484.837 983.925C486.085 986.103 486.702 988.475 486.734 990.962C486.734 991.124 486.685 991.271 486.669 991.433C493.349 997.804 499.997 1004.19 506.483 1010.72C509.369 1013.66 512.028 1016.82 514.785 1019.87C514.104 1015.66 513.471 1011.44 513.212 1007.23C513.066 1004.6 512.985 1002 512.985 999.412C512.985 995.951 513.131 992.489 513.423 988.995C514.071 981.471 515.612 973.963 518.222 966.91C519.211 964.212 520.281 961.45 521.416 958.703C520.249 954.722 519.098 950.74 517.898 946.758C516.39 941.802 514.493 936.959 512.596 932.116C512.434 931.71 512.255 931.304 512.093 930.897C510.293 926.786 508.412 922.755 506.175 918.855C504.456 915.784 502.413 912.875 500.354 910.014C497.581 906.683 494.663 903.644 491.339 900.865C489.377 899.581 487.383 898.492 485.291 897.501C483.686 896.916 482.081 896.396 480.443 895.973C480.265 895.973 480.07 895.973 479.892 895.973C479.827 895.99 479.778 896.006 479.713 896.022C479.421 896.363 479.113 896.672 478.821 896.997ZM376.655 892.788C374.596 893.178 372.618 893.682 370.624 894.365C369.748 894.803 368.889 895.275 368.062 895.811C368.029 895.843 367.997 895.876 367.964 895.908C367.559 897.241 367.219 898.59 366.943 899.955C366.846 901.564 366.878 903.173 367.008 904.782C367.413 907.04 367.997 909.186 368.775 911.315C372.634 919.538 377.66 927.322 382.995 934.651C387.519 940.29 392.27 945.605 397.734 950.366C401.723 953.275 405.938 955.875 410.04 958.622C414.71 961.71 419.396 964.749 424.131 967.706C425.282 968.438 426.19 969.429 427.049 970.42C429.141 970.631 431.232 970.778 433.34 971.054C440.15 971.997 446.912 973.102 453.689 974.32C453.365 972.955 453.041 971.574 452.716 970.209C450.722 961.742 448.566 953.243 447.204 944.695C447.187 944.597 447.171 944.5 447.155 944.402C445.809 941.753 444.382 939.153 442.664 936.683C437.929 930.719 432.967 924.901 427.892 919.196C422.704 913.362 417.369 907.788 411.435 902.75C407.803 900.28 404.009 898.232 400.036 896.347C398.626 895.795 397.199 895.258 395.756 894.738C393.129 893.828 390.356 893.341 387.616 892.886C383.952 892.512 380.303 892.496 376.655 892.788Z" fill="black"/>
<path d="M434.443 1508.2C434.07 1508.15 433.697 1508.1 433.324 1508.05C432.449 1507.94 431.573 1507.81 430.697 1507.7C431.946 1507.84 433.194 1508.01 434.443 1508.2ZM447.285 1437.67C447.966 1434.6 449.149 1431.71 450.414 1428.83C451.354 1426.73 452.246 1424.64 453.381 1422.67C455.165 1419.52 457.24 1416.02 459.997 1413.59C463.337 1410.64 467.099 1407.75 471.557 1406.71C476.081 1405.66 480.183 1405.46 484.772 1406.11C489.263 1406.76 493.625 1408.73 497.679 1410.71C502.543 1413.08 507.18 1416.06 511.169 1419.76C516.503 1424.67 521.108 1430.44 524.886 1436.63C528.632 1442.82 531.583 1449.13 534.307 1455.84C536.528 1461.38 538.49 1467.02 540.419 1472.68C545.624 1470.45 550.845 1468.71 556.634 1469.16C561.936 1469.6 567.351 1470.69 571.875 1473.7C575.961 1476.38 579.318 1479.53 581.977 1483.69C585.22 1488.78 587.717 1494.37 590.084 1499.94C593.051 1506.85 595.856 1513.81 598.305 1520.91C601.142 1529 603.461 1537.24 605.585 1545.53C606.347 1545.24 607.06 1544.75 607.855 1544.6C611.633 1543.89 615.184 1543.51 618.978 1543.92C621.215 1544.16 623.404 1544.54 625.609 1545.04C628.577 1545.69 631.349 1547.01 634.089 1548.29C637.3 1549.75 640.478 1551.92 643.072 1554.39C649.282 1560.38 653.887 1567.45 657.665 1575.16C661.913 1583.91 665.756 1592.9 669.388 1601.95C670.669 1601.35 671.982 1600.83 673.393 1600.56C678.565 1599.53 683.673 1599.03 688.796 1600.69C691.358 1601.5 693.79 1602.52 696.206 1603.66C699.628 1605.25 702.627 1607.69 705.562 1610.06C707.864 1611.93 710.151 1614 712.113 1616.25C716.539 1621.31 720.658 1627.63 722.587 1634.18C723.495 1637.23 724.111 1640.4 724.711 1643.52C725.392 1646.94 726.024 1650.33 726.511 1653.76C727.014 1657.29 727.127 1660.54 727.127 1664.07C727.095 1670.16 727.5 1676.22 727.938 1682.32C728.408 1689 728.878 1695.66 729.089 1702.37C729.284 1708.59 728.748 1714.74 728.278 1720.96C727.192 1735.64 726.786 1750.39 726.349 1765.13C726.284 1767.07 725.862 1768.9 725.149 1770.59C725.408 1770.87 725.684 1771.13 725.943 1771.42C730.24 1776.13 734.569 1780.86 739.093 1785.38C743.487 1789.78 748.124 1793.85 752.551 1798.22C756.783 1802.41 760.966 1806.69 765.198 1810.88C772.3 1817.95 779.661 1824.76 787.428 1831.05C787.704 1831.26 787.979 1831.45 788.255 1831.65C792.26 1834.51 795 1838.26 795 1843.38C795 1846.97 793.573 1850.47 791.011 1853C788.482 1855.54 784.996 1857 781.412 1857C777.489 1857 774.813 1855.34 771.814 1853C766.576 1848.91 761.599 1844.23 756.702 1839.69C750.184 1833.63 744.055 1827.23 737.78 1820.89C731.326 1814.42 724.5 1808.39 718.079 1801.89C712.307 1796.11 706.892 1790.03 701.265 1784.11C680.3 1788.65 659.416 1793.38 638.143 1796.17C628.609 1797.42 619.043 1798.85 609.444 1799.63C602.407 1800.2 595.58 1800.66 588.527 1799.73C582.171 1798.89 575.75 1797.57 569.638 1795.52C565.649 1794.17 561.498 1792.61 557.882 1790.37C554.639 1788.34 551.672 1786 548.721 1783.59C543.208 1779.19 537.663 1773.5 534.89 1766.94C533.869 1764.53 532.961 1762.47 532.491 1759.93C532.134 1758 531.858 1755.85 531.858 1753.74C531.858 1751.71 532.118 1749.68 532.831 1747.87C533.058 1747.3 533.318 1746.87 533.545 1746.33C528.129 1744.98 522.73 1743.5 517.363 1741.91C508.704 1739.31 499.786 1736.42 492.052 1731.67C489.442 1730.08 486.88 1728.32 484.448 1726.45C482.616 1725.02 480.637 1723.68 478.903 1722.08C476.633 1719.92 474.752 1717.43 472.984 1714.87C470.52 1711.31 468.59 1707.75 466.936 1703.78C465.428 1700.19 464.229 1696.21 464.229 1692.28C464.229 1691.51 464.277 1690.77 464.375 1690.02C464.715 1687.27 464.877 1684.4 465.753 1681.75C466.401 1679.91 467.163 1678.11 467.974 1676.35C463.629 1674.45 459.348 1672.44 455.262 1670.09C449.247 1666.67 443.426 1662.98 437.783 1658.95C434.411 1656.54 431.087 1654.1 427.909 1651.45C421.455 1646.04 417.629 1637.71 416.753 1629.47C416.672 1628.78 416.64 1628.09 416.64 1627.4C416.64 1624.33 417.337 1621.24 418.407 1618.42C419.347 1615.95 420.126 1614.22 421.65 1612.22C422.379 1611.27 423.206 1610.53 423.936 1609.71C417.45 1607.28 411.078 1604.54 404.722 1601.82C398.674 1599.22 392.594 1596.41 386.984 1592.89C374.012 1584.79 360.927 1574.6 353.323 1561.02C350.453 1555.88 348.669 1550.27 348.669 1544.49C348.669 1542.46 348.896 1540.43 349.367 1538.36C351.183 1530.43 356.663 1524.06 363.765 1520.21C367.008 1518.45 370.283 1516.86 373.639 1515.4C377.628 1513.64 381.747 1511.47 386.011 1510.39C386.238 1510.33 386.481 1510.3 386.692 1510.25C385.541 1509.4 384.373 1508.59 383.238 1507.71C379.898 1505.11 376.915 1502.12 373.883 1499.12C364.851 1490.08 357.587 1479.27 351.004 1468.38C349.318 1465.57 347.583 1462.76 346.27 1459.76C344.924 1456.73 343.302 1453.51 342.589 1450.23C341.697 1446.33 341 1442.32 341 1438.34C341 1437.34 341.049 1436.37 341.13 1435.38C341.94 1427.07 344.275 1418.75 350.858 1413.16C362.484 1403.2 379.071 1401.67 393.615 1403.88C397.977 1404.53 402.241 1405.35 406.36 1407C410.073 1408.5 413.802 1410.01 417.385 1411.78C429.303 1417.68 438.691 1427.63 447.285 1437.67ZM458.878 1593.41C468.185 1591.6 477.703 1590.56 487.075 1589.85C493.803 1589.34 500.565 1588.76 507.294 1588.5C507.991 1588.46 508.672 1588.45 509.369 1588.43C505.072 1583.75 500.84 1578.96 496.333 1574.47C486.361 1564.53 476.049 1554.97 465.688 1545.43C463.466 1545.3 461.278 1544.77 459.332 1543.48C458.229 1542.73 457.127 1542.05 455.975 1541.45C451.695 1539.99 447.187 1539.13 442.777 1538.17C438.156 1537.16 433.486 1536.33 428.784 1535.62C420.304 1534.67 411.954 1534.25 403.441 1534.97C398.788 1535.7 394.134 1536.61 389.724 1538.31C385.265 1540.26 380.806 1542.31 376.72 1544.93C376.72 1544.94 376.72 1544.96 376.72 1544.99C376.817 1545.35 376.931 1545.71 377.044 1546.07C378.423 1548.8 380.06 1551.33 381.86 1553.82C385.833 1558.45 390.21 1562.59 394.945 1566.44C403.198 1572.39 412.002 1576.93 421.244 1581.12C426.336 1583.25 431.443 1585.31 436.697 1587C442.923 1589.03 449.441 1590.32 455.797 1591.88C456.965 1592.17 457.905 1592.84 458.878 1593.41ZM443.977 1627C444.009 1626.96 444.042 1626.95 444.074 1626.92C444.35 1626.56 444.642 1626.18 444.917 1625.81C444.577 1626.18 444.269 1626.59 443.977 1627ZM443.799 1627.31C443.863 1627.21 443.944 1627.13 444.009 1627.03C443.993 1627.05 443.961 1627.06 443.944 1627.08C443.88 1627.14 443.847 1627.22 443.799 1627.31C443.799 1627.29 443.799 1627.29 443.799 1627.31ZM486.929 1655.68C487.966 1656.1 488.826 1656.64 489.717 1657.13C489.831 1657.08 489.944 1657.03 490.058 1656.98C493.139 1655.79 496.236 1654.54 499.414 1653.63C512.758 1649.83 526.524 1648.17 540.338 1646.99C546.97 1646.4 553.683 1646.08 560.347 1645.6C561.66 1645.51 562.957 1645.57 564.255 1645.52C560.347 1641.59 556.423 1637.69 552.499 1633.79C546.873 1628.15 541.425 1622.33 535.912 1616.58C532.345 1618.82 527.951 1619.72 523.589 1618.61C522 1618.22 520.411 1617.86 518.79 1617.57C511.12 1616.81 503.451 1616.9 495.733 1617.25C487.658 1617.59 479.583 1618.07 471.541 1619C464.066 1620.14 456.575 1621.29 449.409 1623.8C447.901 1624.59 446.441 1625.42 445.031 1626.36C444.593 1626.79 444.139 1627.21 443.717 1627.65C443.669 1627.79 443.636 1627.96 443.588 1628.1C443.734 1628.67 443.896 1629.24 444.09 1629.79C444.512 1630.59 444.966 1631.37 445.452 1632.12C446.62 1633.27 447.836 1634.34 449.101 1635.38C453.397 1638.5 457.808 1641.41 462.364 1644.14C466.855 1646.86 471.622 1649.02 476.357 1651.24C479.859 1652.74 483.378 1654.23 486.929 1655.68ZM555.466 1724.05C567.984 1716.41 582.058 1712.41 596.343 1709.52C603.234 1708.12 610.125 1706.74 617 1705.36C619.14 1704.94 621.313 1704.5 623.469 1704.09C612.151 1692.9 600.818 1681.7 589.419 1670.57C588.381 1671.79 587.23 1672.92 585.836 1673.75C582.155 1675.91 578.604 1675.88 574.551 1675.21C574.226 1675.17 573.902 1675.12 573.578 1675.07C557.38 1673.15 540.76 1673.8 524.594 1675.83C520.2 1676.5 515.839 1677.2 511.542 1678.25C507.05 1679.34 502.705 1680.82 498.408 1682.48C497.306 1683.01 496.219 1683.58 495.182 1684.23C494.371 1684.95 493.609 1685.7 492.863 1686.48C492.409 1687.19 491.987 1687.92 491.598 1688.69C491.323 1689.58 491.096 1690.47 490.901 1691.4C490.901 1691.6 490.885 1691.79 490.885 1691.97C491.128 1692.98 491.404 1693.95 491.728 1694.93C492.976 1697.35 494.42 1699.66 495.976 1701.9C497.273 1703.34 498.7 1704.63 500.176 1705.85C503.597 1708.38 507.148 1710.74 511.007 1712.58C517.606 1715.09 524.432 1716.93 531.275 1718.82C539.236 1721.01 547.375 1722.63 555.466 1724.05ZM561.028 1754.94C561.028 1754.93 561.028 1754.89 561.028 1754.88C561.028 1754.91 561.028 1754.93 561.028 1754.94ZM619.351 1769.28C626.339 1768.64 633.327 1767.98 640.267 1767.15C652.687 1765.23 664.929 1762.35 677.171 1759.44C674.82 1757.04 672.42 1754.67 670.101 1752.23C661.719 1743.5 653.725 1734.43 645.294 1725.79C642.699 1728.89 638.954 1730.99 634.673 1731.05C632.29 1731.1 629.922 1731.18 627.539 1731.41C619.545 1732.69 611.584 1734.4 603.671 1736.06C595.256 1737.8 587.1 1739.91 579.091 1742.92C573.772 1745.39 568.924 1748.38 564.173 1751.79C563.265 1752.57 562.39 1753.37 561.579 1754.23C561.822 1754.63 562.082 1755.04 562.341 1755.43C564.433 1757.84 566.752 1760.01 569.232 1762.08C571.502 1763.7 573.853 1765.18 576.334 1766.42C581.134 1768.15 586.128 1769.41 591.122 1770.33C600.51 1771.21 609.995 1770.1 619.351 1769.28ZM680.511 1627C680.3 1627.22 680.106 1627.44 679.911 1627.66C678.533 1629.84 677.365 1632.13 676.311 1634.5C674.382 1639.71 673.182 1644.92 672.209 1650.4C669.745 1670.42 668.204 1690.98 670.263 1711.1C670.409 1711.94 670.572 1712.79 670.766 1713.63C670.831 1713.92 670.815 1714.2 670.863 1714.49C674.755 1718.7 678.614 1722.96 682.489 1727.19C687.84 1732.99 693.531 1738.46 699.125 1744.02C699.336 1740.51 699.465 1737 699.725 1733.49C700.406 1724.44 701.541 1715.21 701.281 1706.12C701.038 1696.78 700.13 1687.5 699.498 1678.19C699.011 1671.04 699.028 1663.77 698.282 1656.66C697.52 1651.83 696.709 1646.97 695.25 1642.27C694.261 1640.1 693.158 1637.97 691.828 1635.97C689.818 1633.63 687.661 1631.42 685.343 1629.4C684.289 1628.69 683.186 1628.05 682.035 1627.47C681.516 1627.31 681.014 1627.14 680.511 1627ZM680.025 1627.06C679.587 1627.37 679.165 1627.73 678.776 1628.12C679.246 1627.74 679.716 1627.39 680.17 1627.01C680.122 1627.03 680.073 1627.05 680.025 1627.06ZM616.302 1568.83C615.589 1568.82 614.876 1568.82 614.162 1568.85C613.789 1569.06 613.4 1569.27 613.043 1569.5C612.589 1569.92 612.135 1570.34 611.698 1570.78C611.406 1571.29 611.13 1571.81 610.854 1572.33C609.817 1575.2 609.119 1578.08 608.584 1581.1C607.482 1591.67 607.239 1602.2 607.32 1612.81C607.384 1623.16 607.822 1633.42 608.957 1643.67C609.525 1647.05 610.336 1650.32 611.114 1653.66C611.227 1654.15 611.13 1654.62 611.179 1655.09C615.719 1659.4 620.275 1663.69 624.766 1668.1C631.252 1674.5 637.721 1680.92 644.207 1687.35C644.223 1679.13 644.548 1670.94 645.083 1662.72C645.391 1658 645.861 1653.27 646.364 1648.59C647.11 1641.41 648.293 1634.03 650.823 1627.26C650.871 1627.13 650.936 1627 650.985 1626.87C650.206 1625.73 649.461 1624.58 648.99 1623.21C645.504 1613 641.71 1602.91 637.738 1592.87C635.354 1587.36 632.792 1581.95 629.452 1576.93C627.993 1575.24 626.42 1573.68 624.75 1572.2C623.404 1571.35 622.026 1570.59 620.599 1569.91C619.189 1569.48 617.762 1569.13 616.302 1568.83ZM554.834 1495.59C554.072 1495.8 553.326 1496.04 552.58 1496.3C551.802 1497.02 551.056 1497.77 550.343 1498.55C548.446 1501.44 546.986 1504.51 545.624 1507.68C544.424 1510.69 543.225 1513.76 542.463 1516.91C541.717 1520.05 541.133 1523.17 540.63 1526.35C540.29 1530.17 539.917 1534.09 540.16 1537.94C540.355 1541.97 540.711 1545.92 541.165 1549.92C543.419 1564.45 545.689 1578.97 548.608 1593.42C548.624 1593.47 548.608 1593.52 548.624 1593.57C554.007 1599.13 559.406 1604.65 564.935 1610.05C571.178 1616.17 577.421 1622.3 583.647 1628.44C583.241 1618.61 583.063 1608.76 583.031 1598.91C583.031 1592.32 583.533 1585.77 584.182 1579.2C584.441 1576.7 584.814 1574.25 585.333 1571.82C582.998 1561.49 581.004 1551.01 578.264 1540.75C575.75 1531.41 572.621 1522.4 568.876 1513.5C566.573 1508.25 563.995 1502.98 560.817 1498.24C560.396 1497.77 559.958 1497.31 559.504 1496.89C558.888 1496.52 558.255 1496.16 557.623 1495.82C557.412 1495.75 557.185 1495.67 556.958 1495.62C556.245 1495.57 555.531 1495.57 554.834 1495.59ZM553.683 1495.72C553.748 1495.69 553.813 1495.67 553.877 1495.64C553.829 1495.67 553.748 1495.69 553.683 1495.72ZM554.299 1495.44C554.234 1495.46 554.185 1495.49 554.121 1495.52H554.137C554.185 1495.49 554.25 1495.48 554.299 1495.44ZM478.821 1434C477.184 1436.45 475.822 1439.05 474.525 1441.68C473.73 1443.99 473.228 1446.33 472.757 1448.75C472.384 1451.81 472.011 1454.9 472.044 1457.94C472.076 1462.08 472.255 1466.16 472.547 1470.25C473.033 1471.07 473.617 1471.83 474.054 1472.66C475.919 1476.22 476.227 1480.22 475.189 1483.82C476.033 1488.1 476.697 1492.39 477.686 1496.63C479.632 1504.87 481.789 1513.01 484.837 1520.92C486.085 1523.1 486.702 1525.48 486.734 1527.96C486.734 1528.12 486.685 1528.27 486.669 1528.43C493.349 1534.8 499.997 1541.19 506.483 1547.72C509.369 1550.66 512.028 1553.82 514.785 1556.87C514.104 1552.66 513.471 1548.44 513.212 1544.23C513.066 1541.6 512.985 1539 512.985 1536.41C512.985 1532.95 513.131 1529.49 513.423 1526C514.071 1518.47 515.612 1510.96 518.222 1503.91C519.211 1501.21 520.281 1498.45 521.416 1495.7C520.249 1491.72 519.098 1487.74 517.898 1483.76C516.39 1478.8 514.493 1473.96 512.596 1469.12C512.434 1468.71 512.255 1468.3 512.093 1467.9C510.293 1463.79 508.412 1459.76 506.175 1455.86C504.456 1452.78 502.413 1449.87 500.354 1447.01C497.581 1443.68 494.663 1440.64 491.339 1437.86C489.377 1436.58 487.383 1435.49 485.291 1434.5C483.686 1433.92 482.081 1433.4 480.443 1432.97C480.265 1432.97 480.07 1432.97 479.892 1432.97C479.827 1432.99 479.778 1433.01 479.713 1433.02C479.421 1433.36 479.113 1433.67 478.821 1434ZM376.655 1429.79C374.596 1430.18 372.618 1430.68 370.624 1431.36C369.748 1431.8 368.889 1432.27 368.062 1432.81C368.029 1432.84 367.997 1432.88 367.964 1432.91C367.559 1434.24 367.219 1435.59 366.943 1436.95C366.846 1438.56 366.878 1440.17 367.008 1441.78C367.413 1444.04 367.997 1446.19 368.775 1448.31C372.634 1456.54 377.66 1464.32 382.995 1471.65C387.519 1477.29 392.27 1482.6 397.734 1487.37C401.723 1490.28 405.938 1492.88 410.04 1495.62C414.71 1498.71 419.396 1501.75 424.131 1504.71C425.282 1505.44 426.19 1506.43 427.049 1507.42C429.141 1507.63 431.232 1507.78 433.34 1508.05C440.15 1509 446.912 1510.1 453.689 1511.32C453.365 1509.96 453.041 1508.57 452.716 1507.21C450.722 1498.74 448.566 1490.24 447.204 1481.69C447.187 1481.6 447.171 1481.5 447.155 1481.4C445.809 1478.75 444.382 1476.15 442.664 1473.68C437.929 1467.72 432.967 1461.9 427.892 1456.2C422.704 1450.36 417.369 1444.79 411.435 1439.75C407.803 1437.28 404.009 1435.23 400.036 1433.35C398.626 1432.79 397.199 1432.26 395.756 1431.74C393.129 1430.83 390.356 1430.34 387.616 1429.89C383.952 1429.51 380.303 1429.5 376.655 1429.79Z" fill="black"/>
<path d="M434.443 2045.2C434.07 2045.15 433.697 2045.1 433.324 2045.05C432.449 2044.94 431.573 2044.81 430.697 2044.7C431.946 2044.84 433.194 2045.01 434.443 2045.2ZM447.285 1974.67C447.966 1971.6 449.149 1968.71 450.414 1965.83C451.354 1963.73 452.246 1961.64 453.381 1959.67C455.165 1956.52 457.24 1953.02 459.997 1950.59C463.337 1947.64 467.099 1944.75 471.557 1943.71C476.081 1942.66 480.183 1942.46 484.772 1943.11C489.263 1943.76 493.625 1945.73 497.679 1947.71C502.543 1950.08 507.18 1953.06 511.169 1956.76C516.503 1961.67 521.108 1967.44 524.886 1973.63C528.632 1979.82 531.583 1986.13 534.307 1992.84C536.528 1998.38 538.49 2004.02 540.419 2009.68C545.624 2007.45 550.845 2005.71 556.634 2006.16C561.936 2006.6 567.351 2007.69 571.875 2010.7C575.961 2013.38 579.318 2016.53 581.977 2020.69C585.22 2025.78 587.717 2031.37 590.084 2036.94C593.051 2043.85 595.856 2050.81 598.305 2057.91C601.142 2066 603.461 2074.24 605.585 2082.53C606.347 2082.24 607.06 2081.75 607.855 2081.6C611.633 2080.89 615.184 2080.51 618.978 2080.92C621.215 2081.16 623.404 2081.54 625.609 2082.04C628.577 2082.69 631.349 2084.01 634.089 2085.29C637.3 2086.75 640.478 2088.92 643.072 2091.39C649.282 2097.38 653.887 2104.45 657.665 2112.16C661.913 2120.91 665.756 2129.9 669.388 2138.95C670.669 2138.35 671.982 2137.83 673.393 2137.56C678.565 2136.53 683.673 2136.03 688.796 2137.69C691.358 2138.5 693.79 2139.52 696.206 2140.66C699.628 2142.25 702.627 2144.69 705.562 2147.06C707.864 2148.93 710.151 2151 712.113 2153.25C716.539 2158.31 720.658 2164.63 722.587 2171.18C723.495 2174.23 724.111 2177.4 724.711 2180.52C725.392 2183.94 726.024 2187.33 726.511 2190.76C727.014 2194.29 727.127 2197.54 727.127 2201.07C727.095 2207.16 727.5 2213.22 727.938 2219.32C728.408 2225.99 728.878 2232.66 729.089 2239.37C729.284 2245.59 728.748 2251.74 728.278 2257.96C727.192 2272.64 726.786 2287.39 726.349 2302.13C726.284 2304.07 725.862 2305.9 725.149 2307.59C725.408 2307.87 725.684 2308.13 725.943 2308.42C730.24 2313.13 734.569 2317.86 739.093 2322.38C743.487 2326.78 748.124 2330.85 752.551 2335.22C756.783 2339.41 760.966 2343.69 765.198 2347.88C772.3 2354.95 779.661 2361.76 787.428 2368.05C787.704 2368.26 787.979 2368.45 788.255 2368.65C792.26 2371.51 795 2375.26 795 2380.38C795 2383.97 793.573 2387.47 791.011 2390C788.482 2392.54 784.996 2394 781.412 2394C777.489 2394 774.813 2392.34 771.814 2390C766.576 2385.91 761.599 2381.23 756.702 2376.69C750.184 2370.63 744.055 2364.23 737.78 2357.89C731.326 2351.42 724.5 2345.39 718.079 2338.89C712.307 2333.11 706.892 2327.03 701.265 2321.11C680.3 2325.65 659.416 2330.38 638.143 2333.17C628.609 2334.42 619.043 2335.85 609.444 2336.63C602.407 2337.2 595.58 2337.66 588.527 2336.73C582.171 2335.89 575.75 2334.57 569.638 2332.52C565.649 2331.17 561.498 2329.61 557.882 2327.37C554.639 2325.34 551.672 2323 548.721 2320.59C543.208 2316.19 537.663 2310.5 534.89 2303.94C533.869 2301.53 532.961 2299.47 532.491 2296.93C532.134 2295 531.858 2292.85 531.858 2290.74C531.858 2288.71 532.118 2286.68 532.831 2284.87C533.058 2284.3 533.318 2283.87 533.545 2283.33C528.129 2281.98 522.73 2280.5 517.363 2278.91C508.704 2276.31 499.786 2273.42 492.052 2268.67C489.442 2267.08 486.88 2265.32 484.448 2263.45C482.616 2262.02 480.637 2260.68 478.903 2259.08C476.633 2256.92 474.752 2254.43 472.984 2251.87C470.52 2248.31 468.59 2244.75 466.936 2240.78C465.428 2237.19 464.229 2233.21 464.229 2229.28C464.229 2228.51 464.277 2227.77 464.375 2227.02C464.715 2224.27 464.877 2221.4 465.753 2218.75C466.401 2216.91 467.163 2215.11 467.974 2213.35C463.629 2211.45 459.348 2209.44 455.262 2207.09C449.247 2203.67 443.426 2199.98 437.783 2195.95C434.411 2193.54 431.087 2191.1 427.909 2188.45C421.455 2183.04 417.629 2174.71 416.753 2166.47C416.672 2165.78 416.64 2165.09 416.64 2164.4C416.64 2161.33 417.337 2158.24 418.407 2155.42C419.347 2152.95 420.126 2151.22 421.65 2149.22C422.379 2148.27 423.206 2147.53 423.936 2146.71C417.45 2144.28 411.078 2141.54 404.722 2138.82C398.674 2136.22 392.594 2133.41 386.984 2129.89C374.012 2121.79 360.927 2111.6 353.323 2098.02C350.453 2092.88 348.669 2087.27 348.669 2081.49C348.669 2079.46 348.896 2077.43 349.367 2075.36C351.183 2067.43 356.663 2061.06 363.765 2057.21C367.008 2055.45 370.283 2053.86 373.639 2052.4C377.628 2050.64 381.747 2048.47 386.011 2047.39C386.238 2047.33 386.481 2047.3 386.692 2047.25C385.541 2046.4 384.373 2045.59 383.238 2044.71C379.898 2042.11 376.915 2039.12 373.883 2036.12C364.851 2027.08 357.587 2016.27 351.004 2005.38C349.318 2002.57 347.583 1999.76 346.27 1996.76C344.924 1993.73 343.302 1990.51 342.589 1987.23C341.697 1983.33 341 1979.32 341 1975.34C341 1974.34 341.049 1973.37 341.13 1972.38C341.94 1964.07 344.275 1955.75 350.858 1950.16C362.484 1940.2 379.071 1938.67 393.615 1940.88C397.977 1941.53 402.241 1942.35 406.36 1944C410.073 1945.5 413.802 1947.01 417.385 1948.78C429.303 1954.68 438.691 1964.63 447.285 1974.67ZM458.878 2130.41C468.185 2128.6 477.703 2127.56 487.075 2126.85C493.803 2126.34 500.565 2125.76 507.294 2125.5C507.991 2125.47 508.672 2125.45 509.369 2125.43C505.072 2120.75 500.84 2115.96 496.333 2111.47C486.361 2101.53 476.049 2091.97 465.688 2082.43C463.466 2082.3 461.278 2081.77 459.332 2080.48C458.229 2079.73 457.127 2079.05 455.975 2078.45C451.695 2076.99 447.187 2076.13 442.777 2075.17C438.156 2074.16 433.486 2073.33 428.784 2072.62C420.304 2071.67 411.954 2071.25 403.441 2071.97C398.788 2072.7 394.134 2073.61 389.724 2075.31C385.265 2077.26 380.806 2079.31 376.72 2081.93C376.72 2081.94 376.72 2081.96 376.72 2081.99C376.817 2082.35 376.931 2082.71 377.044 2083.07C378.423 2085.8 380.06 2088.33 381.86 2090.82C385.833 2095.45 390.21 2099.59 394.945 2103.44C403.198 2109.39 412.002 2113.93 421.244 2118.12C426.336 2120.25 431.443 2122.31 436.697 2124C442.923 2126.03 449.441 2127.32 455.797 2128.88C456.965 2129.17 457.905 2129.84 458.878 2130.41ZM443.977 2164C444.009 2163.96 444.042 2163.95 444.074 2163.92C444.35 2163.56 444.642 2163.18 444.917 2162.81C444.577 2163.18 444.269 2163.59 443.977 2164ZM443.799 2164.31C443.863 2164.21 443.944 2164.13 444.009 2164.03C443.993 2164.05 443.961 2164.06 443.944 2164.08C443.88 2164.14 443.847 2164.22 443.799 2164.31C443.799 2164.29 443.799 2164.29 443.799 2164.31ZM486.929 2192.68C487.966 2193.1 488.826 2193.64 489.717 2194.13C489.831 2194.08 489.944 2194.03 490.058 2193.98C493.139 2192.79 496.236 2191.54 499.414 2190.63C512.758 2186.83 526.524 2185.17 540.338 2183.99C546.97 2183.4 553.683 2183.08 560.347 2182.6C561.66 2182.51 562.957 2182.57 564.255 2182.52C560.347 2178.59 556.423 2174.69 552.499 2170.79C546.873 2165.15 541.425 2159.33 535.912 2153.58C532.345 2155.82 527.951 2156.72 523.589 2155.61C522 2155.22 520.411 2154.86 518.79 2154.57C511.12 2153.81 503.451 2153.9 495.733 2154.25C487.658 2154.59 479.583 2155.07 471.541 2156C464.066 2157.14 456.575 2158.29 449.409 2160.8C447.901 2161.59 446.441 2162.42 445.031 2163.36C444.593 2163.79 444.139 2164.21 443.717 2164.65C443.669 2164.79 443.636 2164.96 443.588 2165.1C443.734 2165.67 443.896 2166.24 444.09 2166.79C444.512 2167.59 444.966 2168.37 445.452 2169.12C446.62 2170.27 447.836 2171.34 449.101 2172.38C453.397 2175.5 457.808 2178.41 462.364 2181.14C466.855 2183.86 471.622 2186.02 476.357 2188.24C479.859 2189.74 483.378 2191.23 486.929 2192.68ZM555.466 2261.05C567.984 2253.41 582.058 2249.41 596.343 2246.52C603.234 2245.12 610.125 2243.74 617 2242.36C619.14 2241.94 621.313 2241.5 623.469 2241.09C612.151 2229.9 600.818 2218.7 589.419 2207.57C588.381 2208.79 587.23 2209.92 585.836 2210.75C582.155 2212.91 578.604 2212.88 574.551 2212.21C574.226 2212.17 573.902 2212.12 573.578 2212.07C557.38 2210.15 540.76 2210.8 524.594 2212.83C520.2 2213.5 515.839 2214.2 511.542 2215.25C507.05 2216.34 502.705 2217.82 498.408 2219.48C497.306 2220.01 496.219 2220.58 495.182 2221.23C494.371 2221.95 493.609 2222.7 492.863 2223.48C492.409 2224.19 491.987 2224.92 491.598 2225.69C491.323 2226.58 491.096 2227.47 490.901 2228.4C490.901 2228.6 490.885 2228.79 490.885 2228.97C491.128 2229.98 491.404 2230.95 491.728 2231.93C492.976 2234.35 494.42 2236.66 495.976 2238.9C497.273 2240.34 498.7 2241.63 500.176 2242.85C503.597 2245.38 507.148 2247.74 511.007 2249.58C517.606 2252.09 524.432 2253.93 531.275 2255.82C539.236 2258.01 547.375 2259.63 555.466 2261.05ZM561.028 2291.94C561.028 2291.93 561.028 2291.89 561.028 2291.88C561.028 2291.91 561.028 2291.93 561.028 2291.94ZM619.351 2306.28C626.339 2305.64 633.327 2304.98 640.267 2304.15C652.687 2302.23 664.929 2299.35 677.171 2296.44C674.82 2294.04 672.42 2291.67 670.101 2289.23C661.719 2280.5 653.725 2271.43 645.294 2262.79C642.699 2265.89 638.954 2267.99 634.673 2268.05C632.29 2268.1 629.922 2268.18 627.539 2268.41C619.545 2269.69 611.584 2271.4 603.671 2273.06C595.256 2274.8 587.1 2276.91 579.091 2279.92C573.772 2282.39 568.924 2285.38 564.173 2288.79C563.265 2289.57 562.39 2290.37 561.579 2291.23C561.822 2291.63 562.082 2292.04 562.341 2292.43C564.433 2294.84 566.752 2297.01 569.232 2299.08C571.502 2300.7 573.853 2302.18 576.334 2303.42C581.134 2305.15 586.128 2306.41 591.122 2307.33C600.51 2308.21 609.995 2307.1 619.351 2306.28ZM680.511 2164C680.3 2164.22 680.106 2164.44 679.911 2164.66C678.533 2166.84 677.365 2169.13 676.311 2171.5C674.382 2176.71 673.182 2181.92 672.209 2187.4C669.745 2207.42 668.204 2227.98 670.263 2248.1C670.409 2248.94 670.572 2249.79 670.766 2250.63C670.831 2250.92 670.815 2251.2 670.863 2251.49C674.755 2255.7 678.614 2259.96 682.489 2264.19C687.84 2269.99 693.531 2275.46 699.125 2281.02C699.336 2277.51 699.465 2274 699.725 2270.49C700.406 2261.44 701.541 2252.21 701.281 2243.12C701.038 2233.78 700.13 2224.5 699.498 2215.19C699.011 2208.04 699.028 2200.77 698.282 2193.66C697.52 2188.83 696.709 2183.97 695.25 2179.27C694.261 2177.1 693.158 2174.97 691.828 2172.97C689.818 2170.63 687.661 2168.42 685.343 2166.4C684.289 2165.69 683.186 2165.05 682.035 2164.47C681.516 2164.31 681.014 2164.14 680.511 2164ZM680.025 2164.06C679.587 2164.37 679.165 2164.73 678.776 2165.12C679.246 2164.74 679.716 2164.39 680.17 2164.01C680.122 2164.03 680.073 2164.05 680.025 2164.06ZM616.302 2105.83C615.589 2105.82 614.876 2105.82 614.162 2105.85C613.789 2106.06 613.4 2106.27 613.043 2106.5C612.589 2106.92 612.135 2107.34 611.698 2107.78C611.406 2108.29 611.13 2108.81 610.854 2109.33C609.817 2112.2 609.119 2115.08 608.584 2118.1C607.482 2128.67 607.239 2139.2 607.32 2149.81C607.384 2160.16 607.822 2170.42 608.957 2180.67C609.525 2184.05 610.336 2187.32 611.114 2190.66C611.227 2191.15 611.13 2191.62 611.179 2192.09C615.719 2196.4 620.275 2200.69 624.766 2205.1C631.252 2211.5 637.721 2217.92 644.207 2224.35C644.223 2216.13 644.548 2207.94 645.083 2199.72C645.391 2195 645.861 2190.27 646.364 2185.59C647.11 2178.41 648.293 2171.03 650.823 2164.26C650.871 2164.13 650.936 2164 650.985 2163.87C650.206 2162.73 649.461 2161.58 648.99 2160.21C645.504 2150 641.71 2139.91 637.738 2129.87C635.354 2124.36 632.792 2118.95 629.452 2113.93C627.993 2112.24 626.42 2110.68 624.75 2109.2C623.404 2108.35 622.026 2107.59 620.599 2106.91C619.189 2106.48 617.762 2106.13 616.302 2105.83ZM554.834 2032.59C554.072 2032.8 553.326 2033.04 552.58 2033.3C551.802 2034.02 551.056 2034.77 550.343 2035.55C548.446 2038.44 546.986 2041.51 545.624 2044.68C544.424 2047.69 543.225 2050.76 542.463 2053.91C541.717 2057.05 541.133 2060.17 540.63 2063.35C540.29 2067.17 539.917 2071.09 540.16 2074.94C540.355 2078.97 540.711 2082.92 541.165 2086.92C543.419 2101.45 545.689 2115.97 548.608 2130.42C548.624 2130.47 548.608 2130.52 548.624 2130.57C554.007 2136.13 559.406 2141.65 564.935 2147.05C571.178 2153.17 577.421 2159.3 583.647 2165.44C583.241 2155.61 583.063 2145.76 583.031 2135.91C583.031 2129.32 583.533 2122.77 584.182 2116.2C584.441 2113.7 584.814 2111.25 585.333 2108.82C582.998 2098.49 581.004 2088.01 578.264 2077.75C575.75 2068.41 572.621 2059.4 568.876 2050.5C566.573 2045.25 563.995 2039.98 560.817 2035.24C560.396 2034.77 559.958 2034.31 559.504 2033.89C558.888 2033.52 558.255 2033.16 557.623 2032.82C557.412 2032.75 557.185 2032.67 556.958 2032.62C556.245 2032.57 555.531 2032.57 554.834 2032.59ZM553.683 2032.72C553.748 2032.69 553.813 2032.67 553.877 2032.64C553.829 2032.67 553.748 2032.69 553.683 2032.72ZM554.299 2032.44C554.234 2032.46 554.185 2032.49 554.121 2032.52H554.137C554.185 2032.49 554.25 2032.48 554.299 2032.44ZM478.821 1971C477.184 1973.45 475.822 1976.05 474.525 1978.68C473.73 1980.99 473.228 1983.33 472.757 1985.75C472.384 1988.81 472.011 1991.9 472.044 1994.94C472.076 1999.08 472.255 2003.16 472.547 2007.25C473.033 2008.07 473.617 2008.83 474.054 2009.66C475.919 2013.22 476.227 2017.22 475.189 2020.82C476.033 2025.1 476.697 2029.39 477.686 2033.63C479.632 2041.87 481.789 2050.01 484.837 2057.93C486.085 2060.1 486.702 2062.48 486.734 2064.96C486.734 2065.12 486.685 2065.27 486.669 2065.43C493.349 2071.8 499.997 2078.19 506.483 2084.72C509.369 2087.66 512.028 2090.82 514.785 2093.87C514.104 2089.66 513.471 2085.44 513.212 2081.23C513.066 2078.6 512.985 2076 512.985 2073.41C512.985 2069.95 513.131 2066.49 513.423 2063C514.071 2055.47 515.612 2047.96 518.222 2040.91C519.211 2038.21 520.281 2035.45 521.416 2032.7C520.249 2028.72 519.098 2024.74 517.898 2020.76C516.39 2015.8 514.493 2010.96 512.596 2006.12C512.434 2005.71 512.255 2005.3 512.093 2004.9C510.293 2000.79 508.412 1996.76 506.175 1992.86C504.456 1989.78 502.413 1986.87 500.354 1984.01C497.581 1980.68 494.663 1977.64 491.339 1974.86C489.377 1973.58 487.383 1972.49 485.291 1971.5C483.686 1970.92 482.081 1970.4 480.443 1969.97C480.265 1969.97 480.07 1969.97 479.892 1969.97C479.827 1969.99 479.778 1970.01 479.713 1970.02C479.421 1970.36 479.113 1970.67 478.821 1971ZM376.655 1966.79C374.596 1967.18 372.618 1967.68 370.624 1968.36C369.748 1968.8 368.889 1969.27 368.062 1969.81C368.029 1969.84 367.997 1969.88 367.964 1969.91C367.559 1971.24 367.219 1972.59 366.943 1973.95C366.846 1975.56 366.878 1977.17 367.008 1978.78C367.413 1981.04 367.997 1983.19 368.775 1985.31C372.634 1993.54 377.66 2001.32 382.995 2008.65C387.519 2014.29 392.27 2019.6 397.734 2024.37C401.723 2027.28 405.938 2029.88 410.04 2032.62C414.71 2035.71 419.396 2038.75 424.131 2041.71C425.282 2042.44 426.19 2043.43 427.049 2044.42C429.141 2044.63 431.232 2044.78 433.34 2045.05C440.15 2046 446.912 2047.1 453.689 2048.32C453.365 2046.96 453.041 2045.57 452.716 2044.21C450.722 2035.74 448.566 2027.24 447.204 2018.69C447.187 2018.6 447.171 2018.5 447.155 2018.4C445.809 2015.75 444.382 2013.15 442.664 2010.68C437.929 2004.72 432.967 1998.9 427.892 1993.2C422.704 1987.36 417.369 1981.79 411.435 1976.75C407.803 1974.28 404.009 1972.23 400.036 1970.35C398.626 1969.79 397.199 1969.26 395.756 1968.74C393.129 1967.83 390.356 1967.34 387.616 1966.89C383.952 1966.51 380.303 1966.5 376.655 1966.79Z" fill="black"/>
</svg>
