<svg width="629" height="568" viewBox="0 0 629 568" fill="none" xmlns="http://www.w3.org/2000/svg">
<path fill-rule="evenodd" clip-rule="evenodd" d="M246.928 50.8334C256.083 40.6042 269.388 34.1667 284.197 34.1667C299.005 34.1667 312.31 40.6042 321.465 50.8334H300.863H284.197H246.928ZM234.197 84.1667C234.197 111.782 256.582 134.167 284.197 134.167V84.1667H234.197ZM317.53 84.1667V134.167C317.53 143.372 324.992 150.833 334.197 150.833H350.863V84.1667H317.53ZM384.197 84.1667V167.5V184.167H367.53H334.197C318.98 184.167 305.35 177.368 296.18 166.645C292.267 167.208 288.267 167.5 284.197 167.5C238.173 167.5 200.863 130.19 200.863 84.1667C200.863 38.143 238.173 0.833374 284.197 0.833374C318.368 0.833374 347.737 21.4017 360.597 50.8334H367.53H384.197H400.863V84.1667H384.197ZM100.863 217.5H67.53C49.1205 217.5 34.1967 232.423 34.1967 250.833V350.833C34.1967 369.243 49.1205 384.167 67.53 384.167H100.863C119.273 384.167 134.197 369.243 134.197 350.833V284.167V250.833C134.197 232.423 119.273 217.5 100.863 217.5ZM167.53 350.833V284.167V250.833V234.167C167.53 224.962 174.992 217.5 184.197 217.5V417.5C184.197 454.318 214.045 484.167 250.863 484.167H284.197C313.82 484.167 338.932 464.845 347.615 438.115L375.803 447.512C356.883 498.137 308.063 534.167 250.863 534.167C182.078 534.167 125.458 482.08 118.295 415.198C146.66 407.535 167.53 381.622 167.53 350.833ZM315.982 427.572L254.353 407.028C237.34 401.357 225.863 385.435 225.863 367.5V267.5C225.863 244.488 244.518 225.833 267.53 225.833C290.542 225.833 309.197 244.488 309.197 267.5V337.468L317.53 340.247V250.833C317.53 232.423 302.607 217.5 284.197 217.5H217.53V417.5C217.53 435.91 232.453 450.833 250.863 450.833H284.197C299.097 450.833 311.712 441.058 315.982 427.572ZM217.53 184.167H284.197C321.015 184.167 350.863 214.015 350.863 250.833V351.357L407.172 370.127L494.405 334.865L500.3 349.45L525.532 324.147L590.295 259.198L613.9 282.735L577.49 319.248H629V352.582H537.333H501.567L506.897 365.768L448.34 389.438C458.15 400.228 461.998 415.858 457.058 430.677C450.128 451.467 428.397 463.158 407.485 457.94C384.173 521.853 322.867 567.5 250.863 567.5C164.442 567.5 93.3817 501.722 85.02 417.5H67.53C30.711 417.5 0.863342 387.652 0.863342 350.833V250.833C0.863342 214.015 30.711 184.167 67.53 184.167H50.8633C41.6587 184.167 34.1967 176.705 34.1967 167.5C34.1967 158.295 41.6587 150.833 50.8633 150.833H117.53C126.735 150.833 134.197 158.295 134.197 167.5C134.197 176.705 126.735 184.167 117.53 184.167H100.863C118.305 184.167 134.182 190.863 146.062 201.827C155.233 191.023 168.915 184.167 184.197 184.167H217.53ZM267.53 259.167C262.928 259.167 259.197 262.898 259.197 267.5V367.5C259.197 371.087 261.492 374.272 264.895 375.405L414.895 425.405C419.262 426.862 423.98 424.502 425.435 420.135C426.892 415.768 424.532 411.05 420.165 409.595L287.26 365.292C280.453 363.023 275.863 356.655 275.863 349.482V267.5C275.863 262.898 272.132 259.167 267.53 259.167Z" fill="#333333"/>
</svg>
