<svg width="976" height="918" viewBox="0 0 976 918" fill="none" xmlns="http://www.w3.org/2000/svg">
<path d="M960.156 36.0948C961.646 34.9096 962.888 33.4421 963.81 31.7763C964.732 30.1106 965.315 28.2794 965.528 26.3877C965.741 24.4959 965.577 22.5809 965.048 20.7523C964.519 18.9236 963.634 17.2174 962.444 15.7312C961.254 14.2451 959.782 13.0084 958.113 12.0919C956.444 11.1754 954.61 10.5972 952.717 10.3903C950.824 10.1835 948.909 10.3522 947.081 10.8866C945.253 11.421 943.549 12.3108 942.066 13.5048L869.705 71.3715C868.01 72.7263 866.642 74.4451 865.703 76.4004C864.763 78.3557 864.276 80.4973 864.278 82.6665V157.054C851.882 160.243 840.896 167.452 833.039 177.552C825.182 187.652 820.899 200.072 820.861 212.866V357.533C820.899 370.327 825.182 382.748 833.039 392.848C840.896 402.948 851.882 410.157 864.278 413.346V711.967C864.278 736.906 854.367 760.823 836.725 778.458C819.084 796.093 795.157 806 770.208 806C745.259 806 721.332 796.093 703.691 778.458C686.05 760.823 676.139 736.906 676.139 711.967V227.333C676.139 192.802 662.416 159.685 637.989 135.268C613.563 110.851 580.433 97.1332 545.889 97.1332C511.344 97.1332 478.215 110.851 453.788 135.268C429.361 159.685 415.639 192.802 415.639 227.333V241.8H386.694V227.333C386.682 215.827 382.103 204.795 373.964 196.659C365.824 188.522 354.789 183.946 343.278 183.933H198.555C187.044 183.946 176.009 188.522 167.869 196.659C159.73 204.795 155.151 215.827 155.139 227.333V241.8H82.7776C63.5932 241.822 45.2009 249.45 31.6355 263.011C18.07 276.571 10.439 294.956 10.4165 314.133V834.933C10.439 854.11 18.07 872.495 31.6355 886.056C45.2009 899.616 63.5932 907.244 82.7776 907.267H459.055C478.24 907.244 496.632 899.616 510.198 886.056C523.763 872.495 531.394 854.11 531.417 834.933V314.133C531.394 294.956 523.763 276.571 510.198 263.011C496.632 249.45 478.24 241.822 459.055 241.8H444.583V227.333C444.583 200.476 455.256 174.718 474.255 155.727C493.253 136.736 519.021 126.066 545.889 126.066C572.757 126.066 598.524 136.736 617.523 155.727C636.521 174.718 647.194 200.476 647.194 227.333V711.967C647.194 744.579 660.155 775.856 683.224 798.917C706.294 821.978 737.583 834.933 770.208 834.933C802.833 834.933 834.123 821.978 857.192 798.917C880.262 775.856 893.222 744.579 893.222 711.967V413.346C905.617 410.157 916.604 402.948 924.461 392.848C932.318 382.748 936.601 370.327 936.639 357.533V212.866C936.601 200.072 932.318 187.652 924.461 177.552C916.604 167.452 905.617 160.243 893.222 157.054V89.6177L960.156 36.0948ZM184.083 227.333C184.087 223.498 185.613 219.82 188.326 217.108C191.039 214.396 194.718 212.87 198.555 212.866H343.278C347.115 212.87 350.794 214.396 353.507 217.108C356.22 219.82 357.746 223.498 357.75 227.333V241.8H184.083V227.333ZM459.055 270.733C470.566 270.746 481.602 275.322 489.742 283.459C497.881 291.595 502.459 302.627 502.472 314.133V834.933C502.459 846.44 497.881 857.471 489.742 865.608C481.602 873.744 470.566 878.321 459.055 878.333H82.7776C71.2667 878.321 60.2308 873.744 52.0913 865.608C43.9518 857.471 39.3735 846.44 39.3609 834.933V314.133C39.3735 302.627 43.9518 291.595 52.0913 283.459C60.2308 275.322 71.2667 270.746 82.7776 270.733H459.055ZM907.694 212.866V357.533C907.694 365.207 904.645 372.566 899.217 377.992C893.789 383.418 886.426 386.467 878.75 386.467C871.073 386.467 863.711 383.418 858.283 377.992C852.855 372.566 849.805 365.207 849.805 357.533V212.866C849.805 205.193 852.855 197.834 858.283 192.408C863.711 186.981 871.073 183.933 878.75 183.933C886.426 183.933 893.789 186.981 899.217 192.408C904.645 197.834 907.694 205.193 907.694 212.866Z" fill="black" stroke="black" stroke-width="20"/>
<path d="M160.389 473.894C160.08 473.854 159.771 473.814 159.462 473.774C158.737 473.68 158.012 473.572 157.287 473.478C158.321 473.599 159.355 473.733 160.389 473.894ZM171.024 415.637C171.588 413.1 172.569 410.711 173.616 408.335C174.395 406.603 175.133 404.872 176.073 403.247C177.551 400.643 179.269 397.757 181.552 395.744C184.319 393.314 187.434 390.925 191.127 390.066C194.873 389.193 198.271 389.032 202.071 389.569C205.791 390.106 209.403 391.73 212.76 393.368C216.789 395.328 220.629 397.784 223.933 400.845C228.351 404.898 232.165 409.664 235.293 414.778C238.395 419.892 240.839 425.101 243.095 430.644C244.935 435.222 246.56 439.88 248.158 444.551C252.469 442.712 256.793 441.276 261.587 441.652C265.978 442.014 270.463 442.913 274.209 445.397C277.593 447.612 280.373 450.216 282.575 453.652C285.261 457.854 287.329 462.471 289.29 467.075C291.747 472.78 294.07 478.526 296.098 484.392C298.448 491.076 300.368 497.882 302.127 504.728C302.759 504.486 303.349 504.084 304.007 503.963C307.136 503.372 310.077 503.063 313.219 503.399C315.073 503.6 316.885 503.909 318.712 504.325C321.169 504.862 323.465 505.949 325.735 507.01C328.394 508.218 331.026 510.003 333.174 512.044C338.317 516.997 342.131 522.836 345.26 529.199C348.778 536.434 351.961 543.857 354.969 551.334C356.03 550.837 357.117 550.408 358.286 550.179C362.569 549.334 366.799 548.918 371.043 550.287C373.165 550.958 375.179 551.804 377.18 552.743C380.013 554.059 382.497 556.072 384.928 558.032C386.835 559.576 388.728 561.281 390.353 563.146C394.019 567.321 397.43 572.543 399.028 577.952C399.78 580.476 400.29 583.094 400.787 585.671C401.351 588.49 401.875 591.295 402.278 594.128C402.694 597.04 402.788 599.725 402.788 602.638C402.761 607.672 403.097 612.679 403.459 617.712C403.849 623.229 404.238 628.733 404.413 634.277C404.574 639.418 404.131 644.492 403.741 649.633C402.842 661.754 402.506 673.943 402.143 686.118C402.09 687.715 401.741 689.232 401.15 690.628C401.365 690.856 401.593 691.071 401.808 691.313C405.366 695.205 408.952 699.112 412.698 702.843C416.337 706.481 420.178 709.837 423.844 713.448C427.349 716.911 430.813 720.441 434.318 723.905C440.2 729.744 446.297 735.368 452.729 740.563C452.957 740.737 453.185 740.898 453.414 741.06C456.731 743.422 459 746.523 459 750.751C459 753.718 457.818 756.604 455.697 758.698C453.602 760.792 450.715 762 447.747 762C444.497 762 442.281 760.631 439.797 758.698C435.46 755.315 431.337 751.449 427.282 747.704C421.883 742.697 416.807 737.408 411.611 732.173C406.266 726.831 400.613 721.851 395.295 716.481C390.514 711.703 386.029 706.682 381.369 701.796C364.006 705.541 346.71 709.448 329.092 711.756C321.196 712.79 313.273 713.971 305.323 714.616C299.495 715.085 293.842 715.461 288.001 714.696C282.737 713.998 277.419 712.911 272.356 711.219C269.053 710.105 265.615 708.817 262.621 706.964C259.935 705.286 257.477 703.353 255.033 701.367C250.468 697.729 245.875 693.031 243.579 687.608C242.733 685.621 241.981 683.916 241.591 681.822C241.296 680.225 241.068 678.453 241.068 676.708C241.068 675.03 241.283 673.352 241.873 671.862C242.061 671.392 242.276 671.03 242.464 670.587C237.979 669.473 233.507 668.251 229.063 666.936C221.892 664.788 214.506 662.399 208.101 658.479C205.939 657.164 203.817 655.714 201.803 654.17C200.285 652.989 198.647 651.875 197.21 650.559C195.33 648.774 193.772 646.72 192.309 644.599C190.267 641.66 188.669 638.72 187.3 635.445C186.051 632.478 185.057 629.189 185.057 625.941C185.057 625.31 185.097 624.692 185.178 624.075C185.46 621.806 185.594 619.431 186.319 617.243C186.857 615.726 187.488 614.236 188.159 612.786C184.56 611.215 181.015 609.551 177.631 607.618C172.649 604.786 167.828 601.739 163.155 598.41C160.362 596.423 157.609 594.409 154.977 592.221C149.633 587.751 146.463 580.865 145.738 574.06C145.671 573.496 145.644 572.919 145.644 572.355C145.644 569.818 146.222 567.267 147.108 564.932C147.887 562.891 148.531 561.468 149.794 559.817C150.398 559.025 151.083 558.421 151.687 557.737C146.316 555.737 141.038 553.468 135.774 551.226C130.765 549.079 125.73 546.756 121.083 543.844C110.341 537.159 99.5037 528.742 93.2057 517.52C90.8289 513.279 89.3517 508.648 89.3517 503.869C89.3517 502.191 89.5397 500.513 89.9291 498.808C91.4331 492.258 95.972 486.996 101.854 483.814C104.539 482.365 107.252 481.049 110.032 479.841C113.335 478.391 116.746 476.593 120.278 475.707C120.466 475.653 120.667 475.626 120.842 475.586C119.888 474.888 118.921 474.217 117.981 473.492C115.215 471.344 112.744 468.874 110.233 466.391C102.753 458.927 96.7374 450.001 91.2854 441.007C89.8889 438.685 88.452 436.363 87.3643 433.879C86.2497 431.383 84.9069 428.725 84.316 426.013C83.5774 422.792 83 419.476 83 416.187C83 415.369 83.0403 414.563 83.1074 413.744C83.7789 406.885 85.7126 400.012 91.1646 395.395C100.793 387.166 114.53 385.904 126.576 387.73C130.188 388.267 133.72 388.938 137.131 390.307C140.206 391.542 143.294 392.791 146.262 394.254C156.132 399.126 163.907 407.341 171.024 415.637ZM180.626 544.273C188.334 542.783 196.216 541.924 203.978 541.333C209.551 540.917 215.151 540.434 220.723 540.219C221.301 540.192 221.865 540.179 222.442 540.166C218.884 536.3 215.379 532.34 211.646 528.635C203.387 520.42 194.847 512.527 186.266 504.647C184.426 504.54 182.613 504.097 181.002 503.037C180.089 502.419 179.175 501.855 178.222 501.359C174.677 500.151 170.944 499.439 167.291 498.647C163.464 497.815 159.597 497.13 155.702 496.54C148.679 495.761 141.763 495.412 134.713 496.003C130.859 496.607 127.005 497.359 123.353 498.768C119.66 500.379 115.967 502.07 112.583 504.231C112.583 504.245 112.583 504.258 112.583 504.285C112.664 504.58 112.758 504.876 112.852 505.171C113.993 507.426 115.349 509.52 116.84 511.574C120.13 515.4 123.756 518.822 127.677 522.004C134.512 526.917 141.804 530.662 149.458 534.125C153.675 535.884 157.905 537.588 162.255 538.984C167.412 540.662 172.81 541.723 178.074 543.011C179.041 543.253 179.82 543.803 180.626 544.273ZM168.285 572.019C168.312 571.992 168.339 571.979 168.365 571.952C168.594 571.657 168.835 571.348 169.064 571.039C168.782 571.348 168.527 571.684 168.285 572.019ZM168.137 572.274C168.191 572.194 168.258 572.127 168.312 572.046C168.298 572.059 168.271 572.073 168.258 572.086C168.204 572.14 168.177 572.207 168.137 572.274C168.137 572.261 168.137 572.261 168.137 572.274ZM203.857 595.711C204.717 596.06 205.428 596.503 206.167 596.906C206.261 596.866 206.355 596.826 206.449 596.785C209 595.805 211.565 594.772 214.197 594.02C225.249 590.879 236.65 589.51 248.091 588.53C253.583 588.047 259.143 587.778 264.662 587.389C265.749 587.308 266.824 587.362 267.898 587.322C264.662 584.073 261.412 580.852 258.162 577.63C253.503 572.972 248.991 568.167 244.425 563.415C241.471 565.267 237.831 566.006 234.219 565.093C232.903 564.771 231.587 564.475 230.244 564.234C223.893 563.603 217.541 563.683 211.149 563.965C204.461 564.247 197.774 564.65 191.113 565.415C184.923 566.355 178.719 567.308 172.783 569.375C171.535 570.033 170.326 570.717 169.158 571.496C168.795 571.845 168.419 572.194 168.07 572.556C168.03 572.677 168.003 572.811 167.963 572.932C168.083 573.402 168.218 573.872 168.379 574.328C168.728 574.986 169.104 575.63 169.507 576.248C170.474 577.201 171.481 578.087 172.528 578.946C176.087 581.523 179.739 583.926 183.513 586.181C187.233 588.423 191.181 590.208 195.102 592.047C198.002 593.282 200.916 594.517 203.857 595.711ZM260.62 652.184C270.987 645.875 282.643 642.572 294.473 640.183C300.18 639.029 305.887 637.888 311.581 636.747C313.354 636.398 315.153 636.035 316.939 635.7C307.566 626.451 298.179 617.202 288.739 608.007C287.88 609.014 286.926 609.954 285.771 610.638C282.723 612.424 279.782 612.397 276.425 611.846C276.157 611.806 275.888 611.766 275.619 611.726C262.204 610.142 248.44 610.678 235.052 612.356C231.413 612.907 227.8 613.484 224.242 614.357C220.522 615.256 216.923 616.477 213.365 617.847C212.451 618.29 211.552 618.759 210.692 619.296C210.021 619.887 209.39 620.504 208.772 621.149C208.396 621.739 208.047 622.343 207.725 622.974C207.496 623.713 207.308 624.451 207.147 625.216C207.147 625.377 207.134 625.538 207.134 625.686C207.335 626.518 207.563 627.323 207.832 628.129C208.866 630.129 210.061 632.035 211.35 633.887C212.425 635.082 213.606 636.143 214.828 637.149C217.662 639.243 220.603 641.19 223.799 642.707C229.264 644.787 234.917 646.304 240.584 647.861C247.178 649.673 253.919 651.016 260.62 652.184ZM265.226 677.701C265.226 677.688 265.226 677.661 265.226 677.648C265.226 677.674 265.226 677.688 265.226 677.701ZM313.528 689.541C319.316 689.017 325.104 688.467 330.851 687.782C341.137 686.198 351.276 683.822 361.415 681.42C359.467 679.433 357.48 677.473 355.56 675.46C348.617 668.251 341.997 660.761 335.014 653.62C332.865 656.184 329.763 657.915 326.218 657.969C324.244 658.009 322.284 658.076 320.31 658.264C313.689 659.325 307.096 660.734 300.543 662.103C293.573 663.54 286.819 665.285 280.185 667.768C275.781 669.808 271.765 672.278 267.831 675.097C267.079 675.742 266.354 676.399 265.682 677.111C265.884 677.446 266.099 677.782 266.313 678.104C268.046 680.091 269.966 681.889 272.021 683.594C273.901 684.937 275.848 686.158 277.902 687.178C281.877 688.614 286.013 689.648 290.149 690.413C297.924 691.138 305.78 690.225 313.528 689.541ZM364.181 572.019C364.006 572.207 363.845 572.382 363.684 572.57C362.543 574.368 361.576 576.261 360.703 578.221C359.105 582.516 358.111 586.825 357.305 591.349C355.264 607.886 353.989 624.867 355.694 641.485C355.815 642.183 355.949 642.881 356.11 643.579C356.164 643.821 356.151 644.049 356.191 644.291C359.414 647.767 362.61 651.284 365.819 654.774C370.251 659.566 374.964 664.09 379.597 668.681C379.771 665.781 379.879 662.882 380.094 659.982C380.658 652.506 381.598 644.881 381.383 637.378C381.181 629.659 380.429 621.994 379.906 614.303C379.503 608.397 379.516 602.396 378.899 596.517C378.267 592.53 377.596 588.517 376.387 584.637C375.568 582.838 374.655 581.08 373.554 579.429C371.889 577.496 370.103 575.67 368.183 574.006C367.31 573.415 366.397 572.892 365.443 572.409C365.013 572.274 364.597 572.14 364.181 572.019ZM363.778 572.073C363.415 572.328 363.066 572.623 362.744 572.945C363.133 572.637 363.523 572.341 363.899 572.033C363.859 572.046 363.818 572.06 363.778 572.073ZM311.004 523.977C310.413 523.964 309.822 523.964 309.231 523.99C308.922 524.165 308.6 524.339 308.305 524.527C307.929 524.876 307.553 525.225 307.19 525.588C306.948 526.004 306.72 526.434 306.492 526.863C305.632 529.239 305.055 531.615 304.612 534.112C303.699 542.837 303.497 551.535 303.564 560.301C303.618 568.851 303.981 577.321 304.921 585.792C305.391 588.584 306.062 591.282 306.707 594.047C306.801 594.45 306.72 594.839 306.76 595.228C310.52 598.785 314.294 602.329 318.013 605.967C323.385 611.256 328.743 616.558 334.114 621.874C334.128 615.081 334.396 608.316 334.839 601.524C335.095 597.631 335.484 593.725 335.9 589.859C336.518 583.926 337.498 577.832 339.593 572.234C339.633 572.127 339.687 572.019 339.727 571.912C339.083 570.972 338.465 570.019 338.076 568.892C335.189 560.462 332.046 552.126 328.756 543.83C326.782 539.28 324.661 534.81 321.894 530.662C320.686 529.266 319.383 527.977 318 526.756C316.885 526.058 315.744 525.427 314.562 524.863C313.394 524.514 312.212 524.219 311.004 523.977ZM260.096 463.478C259.465 463.652 258.847 463.854 258.229 464.069C257.585 464.659 256.967 465.277 256.376 465.921C254.805 468.31 253.597 470.847 252.469 473.465C251.475 475.948 250.481 478.485 249.85 481.089C249.232 483.68 248.749 486.257 248.333 488.888C248.051 492.043 247.742 495.278 247.943 498.459C248.104 501.788 248.4 505.05 248.776 508.352C250.642 520.353 252.522 532.353 254.939 544.287C254.953 544.327 254.939 544.367 254.953 544.407C259.411 548.998 263.883 553.562 268.462 558.019C273.632 563.079 278.802 568.14 283.959 573.214C283.623 565.093 283.475 556.958 283.448 548.824C283.448 543.374 283.865 537.964 284.402 532.541C284.617 530.474 284.925 528.447 285.355 526.447C283.421 517.91 281.77 509.252 279.5 500.781C277.419 493.063 274.827 485.627 271.725 478.271C269.818 473.935 267.683 469.586 265.051 465.666C264.702 465.277 264.339 464.901 263.963 464.552C263.453 464.243 262.929 463.948 262.406 463.666C262.231 463.612 262.043 463.545 261.855 463.505C261.264 463.465 260.673 463.465 260.096 463.478ZM259.143 463.585C259.196 463.558 259.25 463.545 259.304 463.518C259.263 463.545 259.196 463.558 259.143 463.585ZM259.653 463.357C259.599 463.371 259.559 463.397 259.505 463.424H259.519C259.559 463.397 259.613 463.384 259.653 463.357ZM197.143 412.603C195.787 414.63 194.659 416.778 193.584 418.953C192.926 420.859 192.51 422.792 192.121 424.792C191.812 427.315 191.503 429.866 191.53 432.376C191.557 435.799 191.704 439.168 191.946 442.551C192.349 443.222 192.832 443.853 193.195 444.538C194.739 447.477 194.994 450.779 194.135 453.759C194.833 457.29 195.384 460.834 196.203 464.337C197.814 471.143 199.6 477.868 202.125 484.405C203.159 486.204 203.669 488.164 203.696 490.217C203.696 490.352 203.656 490.472 203.642 490.607C209.175 495.869 214.681 501.144 220.052 506.54C222.442 508.97 224.645 511.574 226.927 514.097C226.363 510.621 225.84 507.131 225.625 503.654C225.504 501.479 225.437 499.332 225.437 497.197C225.437 494.338 225.558 491.479 225.799 488.593C226.337 482.378 227.612 476.176 229.774 470.351C230.593 468.122 231.48 465.84 232.42 463.572C231.453 460.283 230.499 456.994 229.506 453.706C228.257 449.612 226.686 445.611 225.115 441.611C224.98 441.276 224.833 440.94 224.698 440.605C223.208 437.208 221.65 433.879 219.797 430.658C218.373 428.121 216.681 425.718 214.976 423.356C212.68 420.604 210.263 418.094 207.51 415.798C205.885 414.738 204.233 413.838 202.501 413.02C201.171 412.536 199.842 412.107 198.486 411.758C198.338 411.758 198.177 411.758 198.029 411.758C197.975 411.771 197.935 411.785 197.881 411.798C197.64 412.08 197.385 412.335 197.143 412.603ZM112.529 409.127C110.824 409.449 109.186 409.865 107.534 410.429C106.809 410.791 106.097 411.181 105.412 411.624C105.385 411.65 105.359 411.677 105.332 411.704C104.996 412.805 104.714 413.919 104.486 415.047C104.405 416.375 104.432 417.704 104.539 419.033C104.875 420.899 105.359 422.671 106.003 424.429C109.199 431.222 113.362 437.651 117.78 443.705C121.527 448.363 125.461 452.753 129.987 456.686C133.29 459.089 136.781 461.236 140.179 463.505C144.046 466.055 147.927 468.565 151.848 471.008C152.802 471.613 153.554 472.431 154.265 473.25C155.998 473.425 157.73 473.545 159.476 473.774C165.116 474.552 170.715 475.465 176.329 476.472C176.06 475.344 175.791 474.203 175.523 473.076C173.871 466.082 172.085 459.062 170.957 452.001C170.944 451.92 170.93 451.84 170.917 451.759C169.802 449.571 168.621 447.424 167.197 445.383C163.276 440.457 159.167 435.651 154.964 430.94C150.667 426.121 146.249 421.517 141.334 417.355C138.326 415.315 135.183 413.624 131.893 412.067C130.725 411.61 129.543 411.167 128.348 410.738C126.173 409.986 123.877 409.583 121.607 409.207C118.572 408.899 115.551 408.885 112.529 409.127Z" fill="black"/>
<path d="M168.137 572.274C168.191 572.194 168.258 572.127 168.312 572.046C168.298 572.059 168.271 572.073 168.258 572.086C168.204 572.14 168.177 572.207 168.137 572.274ZM168.137 572.274C168.137 572.261 168.137 572.261 168.137 572.274ZM160.389 473.894C160.08 473.854 159.771 473.814 159.462 473.774C158.737 473.68 158.012 473.572 157.287 473.478C158.321 473.599 159.355 473.733 160.389 473.894ZM171.024 415.637C171.588 413.1 172.569 410.711 173.616 408.335C174.395 406.603 175.133 404.872 176.073 403.247C177.551 400.643 179.269 397.757 181.552 395.744C184.319 393.314 187.434 390.925 191.127 390.066C194.873 389.193 198.271 389.032 202.071 389.569C205.791 390.106 209.403 391.73 212.76 393.368C216.789 395.328 220.629 397.784 223.933 400.845C228.351 404.898 232.165 409.664 235.293 414.778C238.395 419.892 240.839 425.101 243.095 430.644C244.935 435.222 246.56 439.88 248.158 444.551C252.469 442.712 256.793 441.276 261.587 441.652C265.978 442.014 270.463 442.913 274.209 445.397C277.593 447.612 280.373 450.216 282.575 453.652C285.261 457.854 287.329 462.471 289.29 467.075C291.747 472.78 294.07 478.526 296.098 484.392C298.448 491.076 300.368 497.882 302.127 504.728C302.759 504.486 303.349 504.084 304.007 503.963C307.136 503.372 310.077 503.063 313.219 503.399C315.073 503.6 316.885 503.909 318.712 504.325C321.169 504.862 323.465 505.949 325.735 507.01C328.394 508.218 331.026 510.003 333.174 512.044C338.317 516.997 342.131 522.836 345.26 529.199C348.778 536.434 351.961 543.857 354.969 551.334C356.03 550.837 357.117 550.408 358.286 550.179C362.569 549.334 366.799 548.918 371.043 550.287C373.165 550.958 375.179 551.804 377.18 552.743C380.013 554.059 382.497 556.072 384.928 558.032C386.835 559.576 388.728 561.281 390.353 563.146C394.019 567.321 397.43 572.543 399.028 577.952C399.78 580.476 400.29 583.094 400.787 585.671C401.351 588.49 401.875 591.295 402.278 594.128C402.694 597.04 402.788 599.725 402.788 602.638C402.761 607.672 403.097 612.679 403.459 617.712C403.849 623.229 404.238 628.733 404.413 634.277C404.574 639.418 404.131 644.492 403.741 649.633C402.842 661.754 402.506 673.943 402.143 686.118C402.09 687.715 401.741 689.232 401.15 690.628C401.365 690.856 401.593 691.071 401.808 691.313C405.366 695.205 408.952 699.112 412.698 702.843C416.337 706.481 420.178 709.837 423.844 713.448C427.349 716.911 430.813 720.441 434.318 723.905C440.2 729.744 446.297 735.368 452.729 740.563C452.957 740.737 453.185 740.898 453.414 741.06C456.731 743.422 459 746.523 459 750.751C459 753.718 457.818 756.604 455.697 758.698C453.602 760.792 450.715 762 447.747 762C444.497 762 442.281 760.631 439.797 758.698C435.46 755.315 431.337 751.449 427.282 747.704C421.883 742.697 416.807 737.408 411.611 732.173C406.266 726.831 400.613 721.851 395.295 716.481C390.514 711.703 386.029 706.682 381.369 701.796C364.006 705.541 346.71 709.448 329.092 711.756C321.196 712.79 313.273 713.971 305.323 714.616C299.495 715.085 293.842 715.461 288.001 714.696C282.737 713.998 277.419 712.911 272.356 711.219C269.053 710.105 265.615 708.817 262.621 706.964C259.935 705.286 257.477 703.353 255.033 701.367C250.468 697.729 245.875 693.031 243.579 687.608C242.733 685.621 241.981 683.916 241.591 681.822C241.296 680.225 241.068 678.453 241.068 676.708C241.068 675.03 241.283 673.352 241.873 671.862C242.061 671.392 242.276 671.03 242.464 670.587C237.979 669.473 233.507 668.251 229.063 666.936C221.892 664.788 214.506 662.399 208.101 658.479C205.939 657.164 203.817 655.714 201.803 654.17C200.285 652.989 198.647 651.875 197.21 650.559C195.33 648.774 193.772 646.72 192.309 644.599C190.267 641.66 188.669 638.72 187.3 635.445C186.051 632.478 185.057 629.189 185.057 625.941C185.057 625.31 185.097 624.692 185.178 624.075C185.46 621.806 185.594 619.431 186.319 617.243C186.857 615.726 187.488 614.236 188.159 612.786C184.56 611.215 181.015 609.551 177.631 607.618C172.649 604.786 167.828 601.739 163.155 598.41C160.362 596.423 157.609 594.409 154.977 592.221C149.633 587.751 146.463 580.865 145.738 574.06C145.671 573.496 145.644 572.919 145.644 572.355C145.644 569.818 146.222 567.267 147.108 564.932C147.887 562.891 148.531 561.468 149.794 559.817C150.398 559.025 151.083 558.421 151.687 557.737C146.316 555.737 141.038 553.468 135.774 551.226C130.765 549.079 125.73 546.756 121.083 543.844C110.341 537.159 99.5037 528.742 93.2057 517.52C90.8289 513.279 89.3517 508.648 89.3517 503.869C89.3517 502.191 89.5397 500.513 89.9291 498.808C91.4331 492.258 95.972 486.996 101.854 483.814C104.539 482.365 107.252 481.049 110.032 479.841C113.335 478.391 116.746 476.593 120.278 475.707C120.466 475.653 120.667 475.626 120.842 475.586C119.888 474.888 118.921 474.217 117.981 473.492C115.215 471.344 112.744 468.874 110.233 466.391C102.753 458.927 96.7374 450.001 91.2854 441.007C89.8889 438.685 88.452 436.363 87.3643 433.879C86.2497 431.383 84.9069 428.725 84.316 426.013C83.5774 422.792 83 419.476 83 416.187C83 415.369 83.0403 414.563 83.1074 413.744C83.7789 406.885 85.7126 400.012 91.1646 395.395C100.793 387.166 114.53 385.904 126.576 387.73C130.188 388.267 133.72 388.938 137.131 390.307C140.206 391.542 143.294 392.791 146.262 394.254C156.132 399.126 163.907 407.341 171.024 415.637ZM180.626 544.273C188.334 542.783 196.216 541.924 203.978 541.333C209.551 540.917 215.151 540.434 220.723 540.219C221.301 540.192 221.865 540.179 222.442 540.166C218.884 536.3 215.379 532.34 211.646 528.635C203.387 520.42 194.847 512.527 186.266 504.647C184.426 504.54 182.613 504.097 181.002 503.037C180.089 502.419 179.175 501.855 178.222 501.359C174.677 500.151 170.944 499.439 167.291 498.647C163.464 497.815 159.597 497.13 155.702 496.54C148.679 495.761 141.763 495.412 134.713 496.003C130.859 496.607 127.005 497.359 123.353 498.768C119.66 500.379 115.967 502.07 112.583 504.231C112.583 504.245 112.583 504.258 112.583 504.285C112.664 504.58 112.758 504.876 112.852 505.171C113.993 507.426 115.349 509.52 116.84 511.574C120.13 515.4 123.756 518.822 127.677 522.004C134.512 526.917 141.804 530.662 149.458 534.125C153.675 535.884 157.905 537.588 162.255 538.984C167.412 540.662 172.81 541.723 178.074 543.011C179.041 543.253 179.82 543.803 180.626 544.273ZM168.285 572.019C168.312 571.992 168.339 571.979 168.365 571.952C168.594 571.657 168.835 571.348 169.064 571.039C168.782 571.348 168.527 571.684 168.285 572.019ZM203.857 595.711C204.717 596.06 205.428 596.503 206.167 596.906C206.261 596.866 206.355 596.826 206.449 596.785C209 595.805 211.565 594.772 214.197 594.02C225.249 590.879 236.65 589.51 248.091 588.53C253.583 588.047 259.143 587.778 264.662 587.389C265.749 587.308 266.824 587.362 267.898 587.322C264.662 584.073 261.412 580.852 258.162 577.63C253.503 572.972 248.991 568.167 244.425 563.415C241.471 565.267 237.831 566.006 234.219 565.093C232.903 564.771 231.587 564.475 230.244 564.234C223.893 563.603 217.541 563.683 211.149 563.965C204.461 564.247 197.774 564.65 191.113 565.415C184.923 566.355 178.719 567.308 172.783 569.375C171.535 570.033 170.326 570.717 169.158 571.496C168.795 571.845 168.419 572.194 168.07 572.556C168.03 572.677 168.003 572.811 167.963 572.932C168.083 573.402 168.218 573.872 168.379 574.328C168.728 574.986 169.104 575.63 169.507 576.248C170.474 577.201 171.481 578.087 172.528 578.946C176.087 581.523 179.739 583.926 183.513 586.181C187.233 588.423 191.181 590.208 195.102 592.047C198.002 593.282 200.916 594.517 203.857 595.711ZM260.62 652.184C270.987 645.875 282.643 642.572 294.473 640.183C300.18 639.029 305.887 637.888 311.581 636.747C313.354 636.398 315.153 636.035 316.939 635.7C307.566 626.451 298.179 617.202 288.739 608.007C287.88 609.014 286.926 609.954 285.771 610.638C282.723 612.424 279.782 612.397 276.425 611.846C276.157 611.806 275.888 611.766 275.619 611.726C262.204 610.142 248.44 610.678 235.052 612.356C231.413 612.907 227.8 613.484 224.242 614.357C220.522 615.256 216.923 616.477 213.365 617.847C212.451 618.29 211.552 618.759 210.692 619.296C210.021 619.887 209.39 620.504 208.772 621.149C208.396 621.739 208.047 622.343 207.725 622.974C207.496 623.713 207.308 624.451 207.147 625.216C207.147 625.377 207.134 625.538 207.134 625.686C207.335 626.518 207.563 627.323 207.832 628.129C208.866 630.129 210.061 632.035 211.35 633.887C212.425 635.082 213.606 636.143 214.828 637.149C217.662 639.243 220.603 641.19 223.799 642.707C229.264 644.787 234.917 646.304 240.584 647.861C247.178 649.673 253.919 651.016 260.62 652.184ZM265.226 677.701C265.226 677.688 265.226 677.661 265.226 677.648C265.226 677.674 265.226 677.688 265.226 677.701ZM313.528 689.541C319.316 689.017 325.104 688.467 330.851 687.782C341.137 686.198 351.276 683.822 361.415 681.42C359.467 679.433 357.48 677.473 355.56 675.46C348.617 668.251 341.997 660.761 335.014 653.62C332.865 656.184 329.763 657.915 326.218 657.969C324.244 658.009 322.284 658.076 320.31 658.264C313.689 659.325 307.096 660.734 300.543 662.103C293.573 663.54 286.819 665.285 280.185 667.768C275.781 669.808 271.765 672.278 267.831 675.097C267.079 675.742 266.354 676.399 265.682 677.111C265.884 677.446 266.099 677.782 266.313 678.104C268.046 680.091 269.966 681.889 272.021 683.594C273.901 684.937 275.848 686.158 277.902 687.178C281.877 688.614 286.013 689.648 290.149 690.413C297.924 691.138 305.78 690.225 313.528 689.541ZM364.181 572.019C364.006 572.207 363.845 572.382 363.684 572.57C362.543 574.368 361.576 576.261 360.703 578.221C359.105 582.516 358.111 586.825 357.305 591.349C355.264 607.886 353.989 624.867 355.694 641.485C355.815 642.183 355.949 642.881 356.11 643.579C356.164 643.821 356.151 644.049 356.191 644.291C359.414 647.767 362.61 651.284 365.819 654.774C370.251 659.566 374.964 664.09 379.597 668.681C379.771 665.781 379.879 662.882 380.094 659.982C380.658 652.506 381.598 644.881 381.383 637.378C381.181 629.659 380.429 621.994 379.906 614.303C379.503 608.397 379.516 602.396 378.899 596.517C378.267 592.53 377.596 588.517 376.387 584.637C375.568 582.838 374.655 581.08 373.554 579.429C371.889 577.496 370.103 575.67 368.183 574.006C367.31 573.415 366.397 572.892 365.443 572.409C365.013 572.274 364.597 572.14 364.181 572.019ZM363.778 572.073C363.415 572.328 363.066 572.623 362.744 572.945C363.133 572.637 363.523 572.341 363.899 572.033C363.859 572.046 363.818 572.06 363.778 572.073ZM311.004 523.977C310.413 523.964 309.822 523.964 309.231 523.99C308.922 524.165 308.6 524.339 308.305 524.527C307.929 524.876 307.553 525.225 307.19 525.588C306.948 526.004 306.72 526.434 306.492 526.863C305.632 529.239 305.055 531.615 304.612 534.112C303.699 542.837 303.497 551.535 303.564 560.301C303.618 568.851 303.981 577.321 304.921 585.792C305.391 588.584 306.062 591.282 306.707 594.047C306.801 594.45 306.72 594.839 306.76 595.228C310.52 598.785 314.294 602.329 318.013 605.967C323.385 611.256 328.743 616.558 334.114 621.874C334.128 615.081 334.396 608.316 334.839 601.524C335.095 597.631 335.484 593.725 335.9 589.859C336.518 583.926 337.498 577.832 339.593 572.234C339.633 572.127 339.687 572.019 339.727 571.912C339.083 570.972 338.465 570.019 338.076 568.892C335.189 560.462 332.046 552.126 328.756 543.83C326.782 539.28 324.661 534.81 321.894 530.662C320.686 529.266 319.383 527.977 318 526.756C316.885 526.058 315.744 525.427 314.562 524.863C313.394 524.514 312.212 524.219 311.004 523.977ZM260.096 463.478C259.465 463.652 258.847 463.854 258.229 464.069C257.585 464.659 256.967 465.277 256.376 465.921C254.805 468.31 253.597 470.847 252.469 473.465C251.475 475.948 250.481 478.485 249.85 481.089C249.232 483.68 248.749 486.257 248.333 488.888C248.051 492.043 247.742 495.278 247.943 498.459C248.104 501.788 248.4 505.05 248.776 508.352C250.642 520.353 252.522 532.353 254.939 544.287C254.953 544.327 254.939 544.367 254.953 544.407C259.411 548.998 263.883 553.562 268.462 558.019C273.632 563.079 278.802 568.14 283.959 573.214C283.623 565.093 283.475 556.958 283.448 548.824C283.448 543.374 283.865 537.964 284.402 532.541C284.617 530.474 284.925 528.447 285.355 526.447C283.421 517.91 281.77 509.252 279.5 500.781C277.419 493.063 274.827 485.627 271.725 478.271C269.818 473.935 267.683 469.586 265.051 465.666C264.702 465.277 264.339 464.901 263.963 464.552C263.453 464.243 262.929 463.948 262.406 463.666C262.231 463.612 262.043 463.545 261.855 463.505C261.264 463.465 260.673 463.465 260.096 463.478ZM259.143 463.585C259.196 463.558 259.25 463.545 259.304 463.518C259.263 463.545 259.196 463.558 259.143 463.585ZM259.653 463.357C259.599 463.371 259.559 463.397 259.505 463.424H259.519C259.559 463.397 259.613 463.384 259.653 463.357ZM197.143 412.603C195.787 414.63 194.659 416.778 193.584 418.953C192.926 420.859 192.51 422.792 192.121 424.792C191.812 427.315 191.503 429.866 191.53 432.376C191.557 435.799 191.704 439.168 191.946 442.551C192.349 443.222 192.832 443.853 193.195 444.538C194.739 447.477 194.994 450.779 194.135 453.759C194.833 457.29 195.384 460.834 196.203 464.337C197.814 471.143 199.6 477.868 202.125 484.405C203.159 486.204 203.669 488.164 203.696 490.217C203.696 490.352 203.656 490.472 203.642 490.607C209.175 495.869 214.681 501.144 220.052 506.54C222.442 508.97 224.645 511.574 226.927 514.097C226.363 510.621 225.84 507.131 225.625 503.654C225.504 501.479 225.437 499.332 225.437 497.197C225.437 494.338 225.558 491.479 225.799 488.593C226.337 482.378 227.612 476.176 229.774 470.351C230.593 468.122 231.48 465.84 232.42 463.572C231.453 460.283 230.499 456.994 229.506 453.706C228.257 449.612 226.686 445.611 225.115 441.611C224.98 441.276 224.833 440.94 224.698 440.605C223.208 437.208 221.65 433.879 219.797 430.658C218.373 428.121 216.681 425.718 214.976 423.356C212.68 420.604 210.263 418.094 207.51 415.798C205.885 414.738 204.233 413.838 202.501 413.02C201.171 412.536 199.842 412.107 198.486 411.758C198.338 411.758 198.177 411.758 198.029 411.758C197.975 411.771 197.935 411.785 197.881 411.798C197.64 412.08 197.385 412.335 197.143 412.603ZM112.529 409.127C110.824 409.449 109.186 409.865 107.534 410.429C106.809 410.791 106.097 411.181 105.412 411.624C105.385 411.65 105.359 411.677 105.332 411.704C104.996 412.805 104.714 413.919 104.486 415.047C104.405 416.375 104.432 417.704 104.539 419.033C104.875 420.899 105.359 422.671 106.003 424.429C109.199 431.222 113.362 437.651 117.78 443.705C121.527 448.363 125.461 452.753 129.987 456.686C133.29 459.089 136.781 461.236 140.179 463.505C144.046 466.055 147.927 468.565 151.848 471.008C152.802 471.613 153.554 472.431 154.265 473.25C155.998 473.425 157.73 473.545 159.476 473.774C165.116 474.552 170.715 475.465 176.329 476.472C176.06 475.344 175.791 474.203 175.523 473.076C173.871 466.082 172.085 459.062 170.957 452.001C170.944 451.92 170.93 451.84 170.917 451.759C169.802 449.571 168.621 447.424 167.197 445.383C163.276 440.457 159.167 435.651 154.964 430.94C150.667 426.121 146.249 421.517 141.334 417.355C138.326 415.315 135.183 413.624 131.893 412.067C130.725 411.61 129.543 411.167 128.348 410.738C126.173 409.986 123.877 409.583 121.607 409.207C118.572 408.899 115.551 408.885 112.529 409.127Z" stroke="black" stroke-width="3"/>
</svg>
